<mxfile host="app.diagrams.net" agent="Mozilla/5.0 (Windows NT 10.0; Win64; x64) AppleWebKit/537.36 (KHTML, like Gecko) Chrome/136.0.0.0 Safari/537.36" version="27.1.3" pages="2">
  <diagram id="VkEJFkmNl9I-UY6GbIWA" name="Страница — 1">
    <mxGraphModel dx="1042" dy="535" grid="1" gridSize="10" guides="1" tooltips="1" connect="1" arrows="1" fold="1" page="1" pageScale="1" pageWidth="827" pageHeight="1169" math="0" shadow="0">
      <root>
        <mxCell id="0" />
        <mxCell id="1" parent="0" />
        <mxCell id="wTlL5DHjrBOYsXznBHzS-3" style="edgeStyle=orthogonalEdgeStyle;rounded=0;orthogonalLoop=1;jettySize=auto;html=1;" parent="1" source="wTlL5DHjrBOYsXznBHzS-1" edge="1">
          <mxGeometry relative="1" as="geometry">
            <mxPoint x="400" y="160" as="targetPoint" />
          </mxGeometry>
        </mxCell>
        <mxCell id="wTlL5DHjrBOYsXznBHzS-1" value="Начало" style="ellipse;whiteSpace=wrap;html=1;" parent="1" vertex="1">
          <mxGeometry x="280" y="40" width="240" height="80" as="geometry" />
        </mxCell>
        <mxCell id="wTlL5DHjrBOYsXznBHzS-6" style="edgeStyle=orthogonalEdgeStyle;rounded=0;orthogonalLoop=1;jettySize=auto;html=1;" parent="1" source="wTlL5DHjrBOYsXznBHzS-4" target="wTlL5DHjrBOYsXznBHzS-5" edge="1">
          <mxGeometry relative="1" as="geometry" />
        </mxCell>
        <mxCell id="wTlL5DHjrBOYsXznBHzS-4" value="Определение языка сообщения" style="rounded=1;whiteSpace=wrap;html=1;" parent="1" vertex="1">
          <mxGeometry x="280" y="160" width="240" height="80" as="geometry" />
        </mxCell>
        <mxCell id="wTlL5DHjrBOYsXznBHzS-5" value="Перевод сообщения" style="rounded=1;whiteSpace=wrap;html=1;" parent="1" vertex="1">
          <mxGeometry x="280" y="280" width="240" height="80" as="geometry" />
        </mxCell>
        <mxCell id="wTlL5DHjrBOYsXznBHzS-7" value="&lt;h1 style=&quot;margin-top: 0px;&quot;&gt;Перевод от пользователя&lt;/h1&gt;&lt;p&gt;Высокоуровневая модель, которая получает на вход сообщение от пользователя произвольного содержания на языках стран СНГ.&lt;/p&gt;" style="text;html=1;whiteSpace=wrap;overflow=hidden;rounded=0;" parent="1" vertex="1">
          <mxGeometry x="40" y="40" width="180" height="160" as="geometry" />
        </mxCell>
      </root>
    </mxGraphModel>
  </diagram>
  <diagram id="YoAffDGKXHXA0e1bxyng" name="Страница — 2">
    <mxGraphModel dx="1042" dy="1704" grid="1" gridSize="10" guides="1" tooltips="1" connect="1" arrows="1" fold="1" page="1" pageScale="1" pageWidth="827" pageHeight="1169" math="0" shadow="0">
      <root>
        <mxCell id="0" />
        <mxCell id="1" parent="0" />
        <mxCell id="LWKtvQjGmoH4qArXGYuM-33" value="2" style="whiteSpace=wrap;html=1;aspect=fixed;strokeColor=none;" vertex="1" parent="1">
          <mxGeometry x="160" y="440" width="40" height="40" as="geometry" />
        </mxCell>
        <mxCell id="LWKtvQjGmoH4qArXGYuM-34" value="1" style="whiteSpace=wrap;html=1;aspect=fixed;strokeColor=none;" vertex="1" parent="1">
          <mxGeometry x="160" y="400" width="40" height="40" as="geometry" />
        </mxCell>
        <mxCell id="LWKtvQjGmoH4qArXGYuM-35" value="3" style="whiteSpace=wrap;html=1;aspect=fixed;strokeColor=none;" vertex="1" parent="1">
          <mxGeometry x="160" y="480" width="40" height="40" as="geometry" />
        </mxCell>
        <mxCell id="LWKtvQjGmoH4qArXGYuM-36" value="4" style="whiteSpace=wrap;html=1;aspect=fixed;strokeColor=none;" vertex="1" parent="1">
          <mxGeometry x="160" y="520" width="40" height="40" as="geometry" />
        </mxCell>
        <mxCell id="LWKtvQjGmoH4qArXGYuM-37" value="5" style="whiteSpace=wrap;html=1;aspect=fixed;strokeColor=none;" vertex="1" parent="1">
          <mxGeometry x="160" y="560" width="40" height="40" as="geometry" />
        </mxCell>
        <mxCell id="LWKtvQjGmoH4qArXGYuM-29" value="2" style="whiteSpace=wrap;html=1;aspect=fixed;strokeColor=none;" vertex="1" parent="1">
          <mxGeometry x="240" y="360" width="40" height="40" as="geometry" />
        </mxCell>
        <mxCell id="LWKtvQjGmoH4qArXGYuM-28" value="1" style="whiteSpace=wrap;html=1;aspect=fixed;strokeColor=none;" vertex="1" parent="1">
          <mxGeometry x="200" y="360" width="40" height="40" as="geometry" />
        </mxCell>
        <mxCell id="LWKtvQjGmoH4qArXGYuM-30" value="3" style="whiteSpace=wrap;html=1;aspect=fixed;strokeColor=none;" vertex="1" parent="1">
          <mxGeometry x="280" y="360" width="40" height="40" as="geometry" />
        </mxCell>
        <mxCell id="LWKtvQjGmoH4qArXGYuM-31" value="4" style="whiteSpace=wrap;html=1;aspect=fixed;strokeColor=none;" vertex="1" parent="1">
          <mxGeometry x="320" y="360" width="40" height="40" as="geometry" />
        </mxCell>
        <mxCell id="LWKtvQjGmoH4qArXGYuM-32" value="5" style="whiteSpace=wrap;html=1;aspect=fixed;strokeColor=none;" vertex="1" parent="1">
          <mxGeometry x="360" y="360" width="40" height="40" as="geometry" />
        </mxCell>
        <mxCell id="LWKtvQjGmoH4qArXGYuM-1" value="" style="shape=image;verticalLabelPosition=bottom;labelBackgroundColor=default;verticalAlign=top;aspect=fixed;imageAspect=0;image=data:image/png,iVBORw0KGgoAAAANSUhEUgAAAr0AAAFRCAYAAAB5ShW8AAAAAXNSR0IArs4c6QAAAARnQU1BAACxjwv8YQUAAAAJcEhZcwAADsMAAA7DAcdvqGQAAOGVSURBVHhe7N0H2HVFeS7+5cmJivTeQUFFmgjSBBW72FFj1xhr1Bj1GE1iYmKMiekxxsTeK2JvqFhQEFBAkSpFOghIL2LJ+Rd/E+/vDOvs9/vesvde+3vfua9rrjVr1qw19zzzzDPPzJq19+3+v1+ja2hoaGhoaGhoaFjG+B+/OTY0NDQ0NDQ0NDQsWzSnt6GhoaGhoaGhYdmjOb0NDQ0NDQ0NDQ3LHs3pbWhoaGhoaGhoWPZoTm9DQ0NDQ0NDQ8OyR3N6GxoaGhoaGhoalj2a09vQ0NDQ0NDQ0LDs0ZzehoaGhoaGhoaGZY/m9DY0NDQ0NDQ0NCx7NKe3oaGhoaGhoaFh2aM5vQ0NDQ0NDQ0NDcsezeltaGhoaGhoaGhY9mhOb0NDQ0NDQ0NDw7LH7f6/X+M38YaGhoaGhmUPw97tbne735zdFv/v//v/luP/+B//vSY0Ku///t//u7v44ou7o48+urv00ku717/+9d2vfvWr7rd+67dKcI/neMZc5TQ0NEwfzeltaGhoaFgRyHDHEf2v//qv7vLLL++uvPLKkn7Xu961++Uvf9ldcMEF3c0339xtscUW3Z577lmc16uvvrq76qqruuuvv77ct88++3S33HJLd+yxx3aXXXZZ95d/+ZflyBneYIMNuk022WRVOZ7dHN+GhtnAb/3Vr/GbeENDQ0NDw7JFnE/HG2+8sfvc5z7XHX/88eV800037b70pS911157bXF6L7nkku5nP/tZWbn96le/2v3gBz8oTu35559f8uQZnOFtttmm+/rXv97d8Y537LbaaqtunXXWKeVk1bg5vQ0Ns4G2p7ehoaGhYcWAA2r1lUN76qmndhdddFFZmf3t3/7t4uj+/Oc/737xi190Z599dnfMMccUp5bDaxvDtttu22244YbdcccdV87l5QR/7GMf6y688MLyjPXWW+83Jf2fleWGhobZQHN6GxoaGhpWDDiiWYHdcsstu4MPPrh79KMfXRzaRzziEcUBtpJr+4IVX/m32267bv/99+8e/vCHd495zGOK48zhle/EE0/s3v/+93cPeMADul133XXVnl55/uf//J+r9gY3NDQMj9YbGxoaGhpWDDij+cAsH55Z2bXq+5GPfKTs8d1tt926fffdd5WDfIc73KG7/e1vX7Y3CNLcv+6663a77LJL95SnPKU74YQTymrv//P//D/lo7ZA3jjZDQ0Nw6I5vQ0NDQ0NKwJxYoWsxgocVdsdBA7xdddd151yyillJVeaj9cgq7ZxYm1l2H333bvnP//5ZZvDySefXLZD2OYQpIyGhobh0T5ka2hoaGhYEYjzyeGFm266qfxKg19uAL/O4GM0H6Ktv/76Jd/ee+9dnF0fqO28887F4ZVP3Mdvwv3vf//iINvv63zjjTcu96Sc5vQ2NMwG2k+WNTQ0NDSsKBj2OK9+Zsz2Bvt5bVs47bTTykot53XzzTfvzj333G6vvfbqbr311uII29tr64JtDH6ajDNra8SOO+5YftaME23Lg73C9vMqo630NjTMDprT29DQ0NCwomDYG+WIjkq39SF7gEfBPbY/2NIw1zOhOb4NDcOjOb0NDQ0NDQ1LwChnuaGhYfbQPmRraGhoaGhYAprD29CwdqA5vQ0NDQ0NDQ0NDcsezeltaGhoaGhoaGhY9mhOb0NDQ0NDQ0NDw7JHc3obGhoaGhoaGhqWPZrT29DQ0NDQ0NDQsOzRnN6GhoaGhoaGhoZlj+b0NjQ0NDQ0NDQ0LHs0p7dhxaL9L0vD2oq+7jZdbmhoaFgzlrXTO9dA4G8l/Se6645DA4fwyBG3BP8JX9eljtf3DgFcyLPmBM7rMBSU3eeXOLnW8havjzXk9Zxpos8hkJ4wSvYNyxt1uydOP2cB+NR9SqjRP18dRt0/TSi7b3thdfUbCjiFV47BKI7S6vz9e6aJufjNimwblhdW1N8Qq6p/zqmrPCv/pNPnxgg5D79RPA12yTPq+rQQ7hAD+j//5/8s50GdZ9pQdl1+4jn20wPnZPxbv/Vbv0n5b9R5ponwywD1P/7H/xiZ1rB8ob2DWl/FtT0nzXFIPah10jEc++fypX8lv9C3HUOilnEwKm3aqGWVcSBt3ufnXF5HeVwTkl7fOyRG6a66hXNDwziwIkbIGIh09FnoQHj813/9VzkGNbeao47vWh1AnuSTZ0ioS2Rccwd8XRsK4dOXW50efomvLu8QqMvFBUeDxNC8GqaLtLejNk+75zjLDgJefX2tHZxcH9JWBJFt+OJU24gcE5828Irs+hz7/CLXWjfkS7o8qdu0EY4QPkE4NjSME8t6pTdVc7zuuuu6n/zkJ93OO+/crbPOOrfpTEN0LJw4ilY5YrzC9/rrr+8uu+yy7tprry3Xtthii27HHXfs7nSnO63KI72uHwMx1AqJss8444zuxhtvLOfrrbded7e73a3wxdN1HPsrptOCsiMrbS2eIxnTDec4Q503+SDHtNe0oNyf/exn3YUXXli4kudv//Zvd5tuumm36667rsojhHPD8kXamR7cfPPNpd+Jb7/99oP1sSB9JPyii9JN0s4666xi36RvvPHG3S677NLd/va3v40NdJ/zIfUYj1/84hfd1Vdf3V188cXFVuO73XbblX5Xcxuap/LJLHH45S9/2Z199tnduuuu29397ncvaVk1heQV+ivF08Stt97aXXXVVd0FF1ywqs3JeIcddijjmTRcIXVraFgKfuuvfo3fxJclGKubbrqp++53v9t97GMf6+51r3sVp8zgoDMN0dFBB8Yhq7jp8IzXscce233hC1/ovvKVr3Qnn3xycXTucpe7dBtuuGG5J51fXnCe+6cN/A28H/7wh7uvf/3r3fe+973u/PPPLwPwRhttVJyz8BsK5BsZO0Zu4t/5zne6r33ta2VCtP/++xeuQvKFt3MYqh6XXHJJ9973vrf76le/2p144onFAcZlr732WsUNxIeUdcNkoX0FOnrDDTd0p5xySnfSSScV58ykrXZ6h7AHdf9Jf4Nf/epXZSIfHcb50ksvLU6vyXEm7KP0d4h6AJl+9rOf7T73uc+V8QNf3O5xj3uU66nrUIguBLhE5uedd173n//5n2VSf9BBB5XrxsLkgdxbp00bV155ZffNb36ze+tb39qddtppRZ9NgujyHe94x8KxHucaGpaKZT066iSXX35597a3va17zWteU5wyDppO5JqQDjUUOIWQV9WM/yc+8YmyuvuP//iP3atf/eru85//fFltMHDUSB0ShsAtt9zSfetb3yoD8JOe9KTuJS95SbfVVlsVWVvRiVM/JBj0TBbEs4Lw05/+tMgWf7LVBrU+yI/7EDKuZaZcq050+WUve1n3L//yL91rX/va7pGPfGS5jjc5Q+30NCw/RA+197ve9a7uz/7sz8qE04qZtqe/sW9Dge7qT3joZwL78L73va/bcsstuz/5kz/pXvrSlxaORx99dLHJqVdC7Ib4EMCdQ/ae97yne+ELX9i94Q1vKHbt4x//+ODyDXAgW7LCCSL7d77znd3xxx9f3gKwD8CZrO2DvLEbQ4FTjsOznvWszvob2/aEJzyhTITUybXoUEPDOLCsV3p1GB39zne+c3klpYNxFDbYYINVTlDCEMAvhsuRETIb9yr7nve8Z5ntGhA++clPdg95yEO6bbfdtjhs4Tsk9xpkede73rXbfPPNi2N2zjnnlMFtjz32KKvqwdBca6fWwPD2t7+9xLfeeutiZO973/uuGiBq/YAcJzEQj3pm/9wqkzcV8l500UVFd+gD3pBBYRL8GmYL2legt97+2K7luPfeexf7QDfoee3gTBO4xVGhj4CPPrfvvvt2O+20U7Fr5557brm2++67l9fw0NfjoXRZueTHpu22227dNddcU1ZP4RGPeMRgvGqQEblG1jhlIm8xBWd2mV3LVjp53CfknoQhYLuLVXQTDG+z8KTL3hLW3Ibi17D8sOxXejkFjKxXUpzddPRgyM6k7DhhNa/73e9+ZaX3+9//fvflL3+522effbrNNtvsNg4vxHgJQ8GkwlYGA4NVBa+nrErXTmPNeUiEC562NJCb/W74a4d6IBAP71yDSdRlTc8ML3sKOTr0gJyPPPLIct21YBL8GmYPdIJdsz2AY1brJ32odWLawKXuM45eVe+3335Ff+01tQpp3+kBBxzQrb/++oV3rbvhH/s4beCivz3sYQ+7jV3T9zhmqdtQUL5Qy8w2PhOJU089tcjVpDi6IPTtWF/mQ8A4YYymw4LtfHTDlr5+/RoaxoFl7fTGcMZAJNTpQyIduubBCAiMlxkwQ+Z1j839HExI/tRnSFhVwjH7xczSOej29XolH8yC8Yoj7sMJq6Y///nPy749H1EY0KzkWOntt0uO0qddD2XjxDF48IMf3B1yyCHdwQcfXF5nezWcAbjm2LD80dfN2DSIDRkStU4Cft76cB7tSbfSa6LMObPKm741K3qsz7FfHHOwYHKHO9yh8PYmLg5kXceh4bsEe6W9CfLGzfYydtheWc76LMIbWG812bUHPehBZTwx9nmzBdGDWZJzw9qNZe30QlYKGN0YKWEWnAM8DE7hhite9sP6kI3RtdeJQdhkk03+LwPg3L1D1oXzZRA788wzyy9MPPWpTy2rIyeccEIZIMJ1VkDGBi1G1YrIUUcdVZxHvz7hIzzX+qgdimnUpy7DIOC1sFfYnF0rZVant9lmmzIwc9zlwbHm2bB8UetHbIAwK30Np3zAGueQDutvH/zgB8sqHhvxtKc9reShvzV3cWFInWZ7OY9f+tKXSp974hOfWFaqcdfnhnZ6yS3yTRw3WwQ46uRM3nlbiGcm/eLuq58zFEyEjBu2uFiZ9utK3grkl4uCITk2LC8s+1HSDHeuziOezj8LwIVB5YgxUPb0Wn30oRUjwFjhnPoYLIbmz/HC7Ygjjii/OuH11HHHHVdWcbKCM0ugD37xwNYAA8Pf/d3fdc997nPLIMxhz+QiAfrxaSCDqaNBzGrNH//xHxfZfuMb3ygDslUSrwbVaVq8GmYDtQMTuxAkbWjglMBG+CjMK2xOpLctXmN7w5K3KzXvuj5DgHxta/BBmEm94FsFNje/ojOkUw5kVPd9q+ZvfOMbu8MPP7z76Ec/WvYeH3bYYd0rXvGK2/AUx38WYKHBh+bssbcAFktMkGzbCYbWhYblhWX/k2Wg03gNzEDsueeexRnLoDFkh6rLFmfwrTT6aR+v0hhYg4XXVL4c9orNCop8ubf/jGmDTHHzdbZXaVdccUX5jcUnP/nJZUsGOdd8h0LNgdEnX4E8HQ3GDO3QPAGHmisZkjMH1ytMDoOfsDv00EPLim/tKMyCrBsmi7p9TYjoL0dSv6Mvtf4Mgehgjjjh6ZW7NxaQbQJssb2ztm7JB7k3GKIu+hxOuLFrtkD5OPcxj3lMWY0MpyG4BbWcAWf2DG864S1cvmeZVdAHds0k3gSIXfMTa47ZztfQME4s+z+niFFiZH3ZanDw+iQGdmhE/HhatfVazequFd+kOTICvmjNzD783Z96CkMAR/uwOGS4kDFDi0/qB0PKvJYzRGYGYys6Vhc46UOhz6+Ga/SBs0vGJkMGYE6OQcP16Mms6HXDdGA/PdvGLvj4dZT+zALoLxuhn9FXAed8wMTBCffatsFQdcLVJN5vYls00efYYa/k9Tc8Z0Xeo2TFieQEmxjPKthfvzLB6aUjtjgYP/JxY7NnDePGsnZ6Y5hUUYhBcBxlJIYAB6Y28n2DX6OuR+o1K85OeCVen4PzITlGTuFUn4vjZ6VkKCgf+jKb6zycnZMrPYIh69AwXURnat2p9WUI1Fwg54H0Oi35os8QHe4/a9pQvn6FT3gLdR3Eh+IH4ZM49LkOyW9NCGewzYWsM7YJQ49rDcsPy16j0nnSuWIAZsEQhFOfY300GAjAAPQN8CwgXOoQzjG6s2a86vaPXIfGKJ2MPKG+HrnGWagHi4aVBe3eb/sh9aB2YB1jw5I2Ss/TB+t+KP+Q9cDTanSgDhwzwHdoRLZBfS4eGzHLwNPEwtGqdOSKd1+nGxrGgWW90huoosAg1EZsVpABYT6Ol3z1qh7jkPoNYYiVayCo5RpD61qMMG5DGmBc5irfNRiS35pQcxzFt630rjz0dXp1Oj4UoqvAFsQOSBf6NktanW8ojOIXbrF3s8ARn7n6/NpoE3AmU7JVP9sfOMPNrjWMC8ve6Y3TVRunOq76QxouSBPUPPAONwagbwxGYah6hOeoetRch+a3NqHPuT4Xz4Bm8I1uJDQ0DAV2S6CXnEP2SoDosGMN+Wv97ev+UOjzTbzmNzTPURyDUWmzjpqzeH2+NtWjYXYx/aXBKaPfaeqOBEN3pDjlEEcGwjf8Eg/3ug6QfNMGHnhHrjUvg57zuh5DYMiyx4laPzgS6lU7vFDLv6Fh2qh1MToau5D0IHkTgn6+odDnxFbrb1l4SBgSePV5JO7arMhyLtTc6zpkIlTLuqFhHFj2Tu+sd/qg36nT4cO/jteQNnQd5zJKzVBNBtGNDAizoAMN08cs9i966FV0vXoLNde+vsa21WmzajvwSpgFhEct51nhNl+Ecx3q9IaGcWLF7OmFUUa1ThsS+IziMlc6zFIdsgKCy+o4D4lZ5bVQpN1BnNyD5VLH5YZJtEv0YNbaGy8/8WUvJm6zynM+wD1tl7oIdZ8bCniYXNR2N8j52iLz1MMR6nhk39AwDsyM09vvoDmn+OLp2LMCnMJrbeycuAfhHJn349OEcmMA6/Kl9/nJMzTwALzwdqx512l9/lDnHQq4hE9kmm0TsyDjtR1kS55WQOv2Fx+lM9NE2n5UO6cfrk2IXIP6XByGkvUorE7+s4q55BhZz4qcwydx+tw+iGuYKac3RrbfWewNtXKQ60MaCIMXhKMPNtLRE4bq7KOaclQa5BVk6hPU8p92PcIVr8gRn3BNSHryz8Uzz5hEPfLscKUH4uElXhvY5Kuvu18e59OGsnGpv0SHmmN45VrDwpG2JsP6bUj0QVwbxCkeCrjgEJ10lIZvzXXaGFUmLn3IF874gnjqAEPwD8IFhz4fY1v4wxA8+2XiOgry4U9H/LJC5DsE51GIjPHr88q1hpWNqTi9o5RtVBpjddJJJ5V/nTIQuJ6v04WhlVbZMaiJ4+Rvgr3Ky19szhL6zUuu/oHMXxqTLcgTAxH59u8bB+Zqu7qsfrl4GRSuvPLK8o9I4Sy9botR8Ky5ri0FnqlsR2UIcV7D11+AkrV/0XMtXMWlh5v84tNGygZHAxiuD3vYw8pfmIaTfELD4kCO9MFfi5955plFL+gwmcYJphvRp2kj7RsO+DjH2T8A6nNsW/R3CI5zod9v/IOaf/fKP7yBPNHzYIj+FtTy0+f8C5n+hm+f56yglpexA2f/mubfQyE6I18t7yHknPLJlA6TsX/a3H333Qtn12dJhxumj5lyeuFd73pXd+211xbDRXlrxwzcEwM8baRjOwoGLf8ff+KJJ5b/aN9+++0L5ymIdCTCby64xmCdccYZ3Y477thtsskmZUCDUYZq3PXAbxT6ZUa+qc91113Xffvb3+4e+MAHFscs+YZEnJRwdATHW265pfzl9Q033NDtuuuut5kM9Z3eoaF/qcvll1/erbvuut3LXvayMiHCTYheNCwebMRxxx1XnF7tv+GGGxa5xukNhtLpWg/F8aC7xxxzTHfwwQcXOzHr0Kc4vN/73ve6Qw45pNjjQH1il4eSMaRPZfwykRfYYjpBN2BIjmvC6aef3l1yySVFL8g8dQK81W1Im5G2NonglNNjE7f99tuv23///X+T678R3g0rC4M5vTVcF3SYt7/97d1OO+3UHXrooeWe3Ju4MFSn6ndonZ5D9uEPf7g4vPe+973L9Ri1aaMvY7LqgxH48pe/3O21117F2Pof+cgU79yzuvYaB/L8Pse6/LT5pZde2r3jHe/oXvziFxc5SyP7DBKjuPafO254fjhC3eYmbf5L3uoeRz0DsDzyO4b7ULoCyk67n3LKKWUAPuyww1atlA3Vz5YT6MlNN91U+pwJ22677dbtsMMO5Vrf6R2lx5MGfkLNgz7Qhbe+9a3dc5/73O7Od77zbXR9FmFF74ILLuje//73dy996UvL6l4QPY9NGEKvUzYZanc466yzunPOOae7z33u022xxRbFJsy6nOmxt7HPfOYzb8MzOkTW4kPWQdm4kPPVV19dxo873elO5S0WGeOYPA0rD1Np9dV1AB2EcjJaBgcrkVFKxxiIIMZjCPQ7CY5WSnHHNUZLviFCH7j0A/nl1XsgDf8geUeVMa4wVxlkaPURJ4F8BbqBY3iuaYDItVFljCP0n4tP0vH2qtVKQ9IhcnaE+v5ph/DHLw5uXrf2+1zD4qCtvWKlC+JeuZJ3rcPRB+0xBKIHNaIfN998c+GW81lG+pmtZmSKb4Jrjq736zothAvgk7anGzW/5JlVRJ/zBjb6qw7SUheIvKcZlI0TG4ZP0px744J7ZN2wMjF4y1PQdCTKSFGjuBQz5zALyopXOjrgHadBx+JMJs+0A051mCsPJ7I2ThDZCkkfdf80Ao7hQaaCmXq2YuR6nX9UyLXkG2fw3HCr03BOIGNp0QlpeIPz+t5pB8APNxwFwJGzTq/1SxwbFg4yJtvYtkwyyTcg8/S5oREdwNsRT9tyosPCLCN9kZ3AveYb/kPXI2WHB9kaO2IHhuQ2X0RfcY0dibzpuLqkHq5PO+AS51u/wyf9EEzsncvbsDIxqLWleFHIepVJuo4zyngNDZwS8MGVEXBed6Q631AhBqofXAv3yFkIb2l1+rRCgFfO6QPjBbhDzS/1mSvAqPTFhqDmArnm6BqjKx6uIE0Yde+0A0TOOQocXn2SzOt2aFgYyC5yzJuguSYR0YOhoPy0c93edHVtgTqQcRYg6nqIz4Ie1zKOzDloMLQOLBRkHTsXexaHN/IfIuAVHyKyFdcX2TbxOL64rm1yb1g6BnN6KVuU0WDgyOk1SPQVsT4fWknTuQIdXD3wEk+HnxWEb583zuENjglD8Q/HcKoRgxr0eebehDptnOg/OyGGv+YY+SaPuLT+oDAUwi28yDh9MH1SesPCQJ5kGdtGnplMuBZ5zyJqnaz7XPRkVoGffkXGNWrOdd1mAelzs8ZrPiDX2Dz1iJxr2zYUcIlcAT/9kG2jH65Ft2v9aFgZGMzppXQUMEqYuFB3qBzrTjULwEenMtMNZ/GhO/uaAoSjYwLD0DdeQ0HZ4WG2bi9k+OHqumNdp8RHhXHDMyO3GtLDs+abfPSc8U360IicccGJc0aXOWi4xlmbhAyXM9L2tV2zjx5iI1yDWj+GQsrXzmlrRyti0Q8YmufqQJcFciZ7qOszKwgfXPEkY3J1vjag1hWInjuqQ94ODCV3HLIlMgto+LFjZB2dTvpQPBuGwyA9jaIZCCidIE5BbTR3HkQhZ9HYhpPOnoFMfMhOhEM/jAKOuebonLFImnN1GRp40IfIuOaUOsxVx1yb6/pSkAGrlqNz8VqO/UlQbZDdCzkOgZoDbvjGKXfMoFD3yYb/g1FtJ40tI0Nyy0ov2boWWdufnvOEoVHrrmN0dW1AZGiCXNdBnWYJtTzFaxtRX5tVRE/JNTZPHZy7ZiwfUpdxEuhu9Nl5Jp/xO/TJTDgaVhYGswgxUhkcEuoO0xSyAehE04XxI3KNbPVFTppgcHCeflr3y4b/xiidJKfYtL5t66N2MhsaGsaH9CtHfbLv9Oqb0OzaysOgTi/Fy8AQZawVsqGhYXrQ76x+WAWpnd7WH+eP2q5lkM2q+VxyNDA357ehYemo+1Hi6YuZzNe2rTm9Kw8zs9JbDw5NGRsapg99kcPbX+nNsWH1iN0SMoHPIEum5NjQ0DB5xF6lL+qDmczHtuV6w8rC4E6vQAGjmHF6GxoaJo96ZUS/i7OmTybkvPXL+aG2aUJ/EtGHtCbbhobxIf2JfROPs5s+mT7X+t3KwyBOb61wCQaEegbWXvc1NEwWGRCEIP0vqPtow+pBnrFb5FU7vn25Bk2uDQ3jRexV3Rfrflj3ubn6ZcPyxWArvRDlc8wA0VfKoB5QGhoalg79qd/X9MG6X6ZvNswPfRtVy3J1H64129bQMB7Udi39KrYsyHmzbSsPg25vyHFNDm9DQ8P4UffBQB8c1Q9bv5wfyGmUXBNvzm1Dw3TQ73+r65cNKweDrvQCpctAKwRtcGhomC70xXrvaX9AaAPE6hFblng/1OifNzQ0LB31ym6Q+Ki0hpWHsTm9tWLNV6GSt+/wjgs1JyvJPijJ+Sygfg0DZMDpGMUv1+a6PingWBuSftnOcRqFtOs0+c6FyHoUJ/GE+o1DnWfSSFmRdY7gWs07cWEp6Jc5zmevNER2jgk16vP+taWAvmaiMmsYVU9pQ9ixpSB816Y+Uf8S0ijMmuzxSf8JxGs7uBTkuY51GQ0rD2NxeilrDMJ8tylE+ZKPcmfP27gUPTxwuvnmm7srr7xyFdfwHQrq6J9s8FBvwW+kXnfddasGBEE+x1y7/vrry0+vuC/XJlWXcMu/BmWADS/XpF177bUlf/iAa3j6v3MG2PmQUAdc8fGXlOoW2akTrgI9cR1nIbJVt4RxwzOV7Zh/N/KPQvji6Kj9cXcU/Huh81wPFqoLyqrrlLYOPD9tOom6zyJSX0j9I9foTR9kI7iWNqyR50Dy9uMLhefRgxtuuGGVLswS6GWtj/jpa2yYUOttjYXq8CSAa3iQLxtH1sFcejBtjOIg7ac//Wl3yy233EbG4qlXAkgbui64ZKwIH7rinwtzfT5IPWLX1lS3+T63YflgLJ7Iqaee2n39618vzgJlqwfS1SncpIHHD3/4w+7v/u7vumc/+9ndH/7hH3a/8zu/033zm9/sbrzxxjmN7jSQTk1OeDCsuL7xjW/sLrnkklXy44Th+1d/9Vfd6173uu4v/uIvute+9rXdBRdcUIyEfAbZSSCGMU7ieuutV2SKr8AJ/853vlN44aNOrgMn7q1vfWv3hS98obvqqqtWpQ+F1OGYY44pMjbo4kt+559/fvfOd76z6MhLX/rS7kUvelGRMe6uyyeos3pNAne84x2LPsTo33rrrUVm2paMX/3qV3e///u/3/3u7/5u95znPKd74Qtf2L3iFa/o3vSmN5W6uFf9JqULKwVpazjjjDO6E088sbvoootW6W/65ZCIvaDHz3/+84s+OH7gAx8ozk5dh2mjLpus0n9uuumm7thjj+3+4A/+oHvBC17QvfjFL+7++I//uMhWn4qtqTF0PS677LLur//6rwtfMn7Zy15W7IRrqdtQwIG8ag7Gim9961vdE57whML1Gc94RrHNJ510UrmevHRZcE6XYKi64KEu11xzTff3f//3xdapBz5sGccdLAI0NIwDS/JELr300u7zn/989973vrc4vemEdQcaqjOBzvTlL3+5u+KKK7r73Oc+3aMf/ehuww03LE7kWWedVfL0De00oWyrdt/97ne797znPd373ve+7uyzzy7OLGPg+k9+8pPuM5/5TLfVVlt197///bu99tqr3MuQMQ5xQCchZ0YnBj5cb3/72xcH63vf+14ZZD/ykY8U5yBOJQeXfP/93/+9+8Y3vlH4G9RiXKcN/PFlTMn3iCOOKDJWl8jNKs7ll1/e7bHHHt1DHvKQ7hGPeER3yCGHdPe4xz1WtYPniE/C+Ho+eHZkTfaJb7PNNt397ne/7oEPfGD30Ic+tBw322yz4uxuscUWZTVEfvwalg4rel/5yle6d7/73d3RRx9dJnfav16FSpsNAfxMyEzWdtlll+6xj31s0dWPfexjJW1SE7OFIvpIXldffXX3tre9rVt33XW7Bz/4wd3+++9fHOEPfvCDxWYE8k7Cli0UbMLJJ59cbNlBBx1UHMnNN9+8O+6447rTTjut2Dtch0TkFH380Y9+VMZhE+hDDz202AyToyOPPLKMKTXcOwtypq/Gt/Q144V+hhubFns7tKwblg+WNEpyHAy8ZuscYIpKOaOg6YxDgENj9njKKacUB+GpT31q95SnPKV7zGMeU5weYRY6Eg6MP8fcwIA3mUk3uF188cVFvnvuuWcxYgkMWz2oTBJxxrQ3iGt3BiqrjLhIZ1zVwzX80/4M2ZDguHBsHXHCFRzxVDeTioMPPrg4lQ94wAO63XfffVXeyHhSjiUZxnFVZuLKvctd7lL0lv4+/elP7w488MDubne7W+F33/vet7vTne60itdQk4vlhNgOby/0Sw7OLMFklyNjwvOoRz2qe+Yzn9k98pGPLHbixz/+cXmLFf2eNlJu9NA5m2B8MFGmr1YgDzvssOKoc97ZkL4Nc+7eoerBfp1++ullkcSk4lnPelZxftkxE2g2AyZte+dCLRsc2IxzzjmncMb3yU9+ctELOuJtRcYW98gf3kPJN/BGS19jl63q1rYZjD3Sml1rGBeWNIJbfTRrv/e9711m8Bmk60BZ08GmCcbJAGDVY8sttyyrZVbErDAwWF4DcnQm5cTMBzo35/We97xncWrIkrNDXjq6wYDTy/AyDBx1xmv77bfv9ttvv5LOKMRRGifSdpAZtyO5Wu21KmpFlHMYI4XHJpts0u27777lNfwOO+xQZD5E+we44WDS8LjHPa60vzQhbc/w0gfBVp3vf//73bnnnltWSTijWW0QF8YJPMiVrOs2JLPwc1xnnXW69ddfv8geR5w5v3e+850LP/cP1deWG8ja5IceW93TLuRKj7RFwhDAgxPp7YpVXraATnButt566zKxYyuGRq2L+hGHnL0yWdtoo43KQsTd73734gyzw/JG/xMft01bCMjQhMcE2NimjxpHtt1227INTRvgmToOBeXTRfJmvyygsMkmwvSBPTZJslUjtss9aZ/o8VD12G677crbNRP6TTfdtPQxNlHb13yH4tew/LAky81h4/gaGMRrZyKKGiWeNnQYA8AGG2xQOr6BQdh4440LH05D/5XPtBFjRYYGAzxxiyPLOWesOLrvf//7yzYSrwjtMzvzzDNXrUBNYoBQPnmBQQnPOLCC1UeOpMHWgJAtDBnYOMVk7TnqRD+GAr4GWFtDGFk8tT0HntzownnnnVdeD9uSYS/yW97ylrL/F3f51VHwrHEj8lEOvSUzOkDuaVdH5/Z7e71qIDa4hU84ctgaFg9tcYc73KHot35pH7u0yNkxYSjQ29g2/S26qb/h5Tp9GArkxXbQY9DXrOTRWXCdnpKtbQScMvpN512LzVCXcdu1+YJN4EAa2ziQuKkTG8ghJl88U8ehga/xgB6YHDvihj9HnfyjE2QrsDVknPMhQIdN3HfeeecSxwcvIeMbuZN/Q8M4sKQeG2PL4fFqonbCYEiDoBNzJHDDKx1c3FEnGrojMUIGWHzEGVScxMlQHchQp/dx1V/+5V+W4957711eC3oFl8Fi3LIOp/r5ZBhjmms4O48sky4tdYAh9xmqC+Am4MpZIHu8dt111+5P/uRPygePr3rVq7pXvvKVZaA46qijSh3c4xl1PceFyDm8yBM4uM5j8JUt71e/+tWyIoKzdO3hHkdcOTwN4wF9J9PIXxvBkE5CgEv4AT70OWn4Dg0cccGNDPFzBPycCzVXOq4OQ8sYd7YBf5wE/Yyzrq9B0oeAciNb8oLIy3l4ibMlQdLJXFsMKWNIO+ND3uJsXiZF6pjFiYaGcWAsljEdiAGDoTsS4GRlwSqDTu+cIbOqIG72PuTqI5ATI4QPQ+ocR0dBus7vdaCVyoSddtqpu/DCC4sDH1lPwvgqH/JsZTE+tQFyDWfH5HNfDLK4EJ5DQflCny+DSr5Wra1QZ5WaU+x1oeu5J3WaFMIrg1EcGBC3WnP88ceX16xxeulA8qRODeNB9Lbf9kPKWblshRU8bZ/X7DhagWTz2LZJ6ul8gYNgXODA+GAtDhju9h6zwYI6RaaxHzBUPeJ0+ZnLOJVWU7190//i+A4NciIvfCJDHKMTFqPwNlF2PW2SAPJG9tNGeKhH+JO3MCSvhuWLJTu9lNJrNXtmDcIxVjCkwuJiv5sOxdjmwyq/euA1CsNlRjkkcKtllE4eY5R9WQYIzrqjQYMR45RlVRAYvnEixgi0KV6MUj0Yhf+otD7yrKEQuYZfXgGTp32F9slmD6/Xmq7ndWwGC/eNqttSEV7kGMdXmRDZc258WEUPvHanv3HKMig7nwS/lQp9LG8EgKyHBg6cxN12263oA93lPJoE2waVfZyzgOin1+30Vb+yPcfkjT32CzommXkdD/Q3cnYcSub2HBvT7O/Hl4xxt63EmzZOMQzFr5aNIx3l2OKFc/bxmrjTF99XxKmcNeBftzublwDRo4aGcWBJnlIUkeHyMVsG7FkAh/Cud71rCQyVV9Uc3i9+8Ytl/xDOQzsJOjUO6eAcdY5ueBm8fKzitY+vcv0SBefMB3p+gs1gEf7uGSc8V3sG2jqhlpuJA+cwr9ilp17qE17JPxTCC098Uxd19NEavfATRT5S8ZW5CZLVVPlTN/nHXY/wCDwfJ2lkG/mZ8HBy7H/LPmr1MchF3vVzGpYO+3rZCauqdfsLQ8lauVYgH/SgB5V96Fb+TzjhhLL/3OKDt0COQ6PuJ/iSJburj+GKN6fXz0j2+bp3aH3m8Or/ZOzXD/JTZSbJfj2H7R26vyk/HDi9xjpy/tznPlds2Ne+9rWy+u8tlvrQ4Rppo/o5Q0F7x9Zm3JgFPWhYfliyp0QpfUXuy3iDNKWlpNKFIYGHH223WuOHr/3IuFVfP/Ozzz77rMozFHTqdGyzccafU0OODBTDypA997nPLQPFn/7pn3bvete7itPmJ9jyysr9eW04TnCmIGXkHKyEAsfcYMbouk6ejJajj8Y4DK7FwE4bysUrBp8ukHE4kaGfUbJ68w//8A/dS17yku5Tn/pUWU31sz/02f2Z0I1bX8IP0meUUZcJ5G21l96SuXR5HclbfmFIfV5uOOCAA4pu7Ljjjr9J+T9tNCTo8HOe85yixz5uZdf8xulrXvOaMkmmD0Oi30/0PTJ8/etfXyaVL3/5y7t/+7d/K2/c/FmFVeDoeeTr7UX6xRCwYu63uv2ywD/+4z+WP9Ow8OD3em0xi70bkqOy628l2AaTCJNjf17jj2uMKc973vOK/YjeRtbaKPGhQWc57Laa4alujnRnaDk3LC/c7tdKP3Wtp8Bev+iIXtV7dSR4/WV2aqBhXJYygKsWp0EZZrv5etWqg1lvVvuWAs/z9fEHP/jBYtT9xNF8oWydOs4jmXBqvI5icPFTB0bNqiP+Vvs4YQwDZy38PSeGYk3wM2g+grvXve5VBs18MTvKADI46phyPF+eDKq42zPmmWSalUn3uWY/nDTOO6d+oYYrfLzC/Y//+I/yL0McaQjn+SB1c6R39MzrSwOX+pGretjeYPKAv+tWVFN/aaAOKTfPzPNzTt+sEOHtR+LJeC7Mtx7kGX4mEuSJm/vJfD7P6CP3OlqBM6ibZHkVSr84V1aS6Zw3EJnQNowG3dBO2ohO0TPBtgOTVj8zKPhIcinQXsryBitbcrQPfaVr43B69d1/+Zd/KZNAzshCgB85RF/oqXMBZ3ZOf2IX6JrrztPHwDOC+egcO+mPDt7+9reXj1FtbVsqtKNtGPn9WDLWL0w6Yxf0n8XCyrE/lOBcszcLaTd8BDLDg7xwwtW2BrL2vIwV+rF87oHF8vZGzMq3SVcfabP5tFeQexzxZnOMfbh7jn6UcaXWifnCeGq7h3Ha21Gy4AMIeatKDxtWDoZdspggYpA4Bxwlr3j8ZJVZOmXXgWIAhoDyY+zxzCDgB9sZKNfVQTrDZTXV6zavW62MpH5CnjdO1IaLnDy/Ls/1OOAGRXKGyFXdrJYyMoyW86GATz6MYFQ56JGvQN64WiXzm8nk7JzhlU+AWibTBhnihDtnHZc4CakHDKnTDZNH9FHbs2v+oMQElt2g29GJoRE7AeJsBfvG/upjeFsowFeQR71iJ4bsa4E+FxnjbEKY/dJ1nxsCyiYzx/R5cqQD9nvTCR/kmmCxzfLFjtUYlTYE2FrjCP7RBfVi62pdamhYKpa1NsUw1WGWnAJcwgt0dHHHBB0+nT75DAzJF9TxccDzalmFJy7S8/qx5isuLasM8uZ6/axpImXHGcCb/MIPwj8h9Ui+oesAyse9dsTVCbca/fOG5QttnT5GNxMfGjikv+EVXe1zrPXYse5fuW9oxEbUwEsdhpS1skdxg1rG4RlZ5jyQPqScw4etzYQHoguxd7VuNDQsBcva6a07tI7FGDhPPOdDQfnpzOLg9VR4CwaEDAoxEIJVCGkZHIRxI9yUVyPlxlCJC/K5xjnLq808I4PgtBF54RN5C1lBEE8dwr2uV5ze3DcUlO0VbmRf85Em4Bk9aliemKuN6YJrs4DoItR9K0f8XR91LXZCHIask7LxCd9wwW1IXn309SGyg1q2syDTUcCLLlgsgcia7KW5VtepoWEpWNYjJGMQwxroSOn00tPRpg0c6tf+nCvcOGPSw9P1fKxQG656NTVGY9zw7Bh8ssrqrjT8wplDGRnjLtirHb6uReZDQNn255ERztlfbL+YtNTHkfxdl881QR1cS32HgLK9HiZrcdAe6oZb5NywMqC9tX0CvYwOOA6FmgNe0dfoqSOIsxPO5cU/fSvnuTY0Up9wwX0WEE4CO4UnmUXGjriSpWMtf3BfP23aiEzpAvvW1xX1chySY8PywrJfFhrVqbOa5xqjPAR0do6Y8vHj2NYref2OjmsGBunqIIBnZE/tpFDzcawHJUfGKoYXF86jeDgPNbkA5ZOfgJMPaeIw2t/N4EaegjxQ64601G8IKDcfSEXm0QnH6M1Q/BqGQd9e1Do7BMJDf8etBm4gXV+KDQ7n8FafWdLnPr9ZQTgJsQMB2fbl30fqs6Z8k0b4e8vJvqXN1cHY1q9bQ8NSsOw1KUYh0MFjaIdEjDrEQOngeEmP85UOL480R+BUqlfyTsKprDnigEsN1/EJJ3mkcc4cw1c6x3IIhAcOQGaZ6IiHvzjHPfJ0X/SmvjfxaQMfAfAIN3zrNhqKX8N0kfaHWhfocvRkKOATW1HrbR2np+HdzxM0fZ4b5JR+D5Fh5FfrR50+F9Z0fdJgc3Fmg6M7zrMQ1NAwLix7i1J3/qA2uENB+XjEYQyfuoPXHFfX8WvHZ5xQfsoVz7myaj79eAbe+p6hgUM41QNy6hKufbg+17VpIhzoTOTpPLKeBZ1umC6iB7MGeqiPrU4fo8tB8jr2w5CYS8azIHscarvvPLz69qDPt847JKIDnF46E/smhP8s8GxYPhjU6R1l0CbVGfPMviFYilF1fzppsBDuZrXhIJjV6vy5Js05w8YgZCBxj7yg/Hp2PB+E4+rqHk4gfz+AsuvBLQ5kuOfVlLSFrkSnjJpDfZwvIp9wCzxXWuoAmYBIq+sEzt2fc0ieoH8+CgvlXyO8cKh5JcBCn9/PvxR+Df+NUTKclFw9N8/u98elwDM9b6modTPxmp9y6nMYR7njwurabXXX5gvPWMxzyIyc2AH3r67t+zIPUu5c19eEcdQ/ZXuWIxuciTzkjeZiyurXqX5G/1rDysEg1mWU8iUtTl7S06mXilFKvhTFx0ng2IVfbYTmE/JKJ+ecsxh8HT9ySJ5aFslXpy8k9CHNcwTPjqMYGdXXpInHOCWEa/LWedxX550rgLzug9Rd8LzEw2tNyH3hnXPxOOTOoU5LGeGd61CfC/3rUF9LUE7qsBjkOXVdarkuFDW/QLzPvWHNiJwit8RzjCwTonNLgedqf2FcCDfHTF4niXE+P3IOxiHnuWSrrMVwr/kFtZO3ECi/30ZzceqnO1+M3uApuLc/RiXuWr+8uVDrmqP72GDPcG2x7ReO4eE8cp4vt4blifFZyzGAQtb7WoMov+tZCR0CNQ8dR7Di6ihdpwr/WQ245lgjaeqmTj4ocD7tkDau07KC4QO57MeNwZ12SNuDeD/IE245gjrUK98JkGdPMyi7lnGtHxkcnOPbMH9Enn1EtgLZpg1mDfiFq19gwXNtQbhGrpF39DlhKCgbnyCyjk2o7cWsg5PqO43Yh1qu6jBUSBuL1x/FkbNVY1ib5Nwwfgzi9NYdH2KcaqMQpcy1pFPeoVDzCHQgaeFVd7xZDEE/TR0YMMbMUX3qPNMKNRfntkUI+JC1OBmH47RD2j9cIe0/KiQ/znMZ2lH3TTrgVcs9eis915LWsGZEbkJQyzMyh/o8cp5LN4ZA2twkLRxnHZFhVj6ju+KzUoeaRxxxeoBreAqzjHC0MBHnMXWq+TvG1kwz4CJkHBMPF3zxFnetYWViJlZ601mEugNBlDZxCjskwkVnB3xitBLHc5ZDbaiCOi0O5ZAgz8ga8ImRhfraEKjl2Ue413WQD3dBXQTXRt0/LSi75hEudVrk3bAwRJY5QvoY2ZLxLKLmG6d3bQCekWs4q4sgrZb9rIFdg5r7rCJy7ju8QWQ+FMKPLOP0hk+tA0LDysTMWN5aEaO0kEFXJ4txGBLpROlIZpQ4CjX/WQ01nMfQRr6pi/q5Nu2AS8oXN/AKOa9n8EOFoJ8e3vV5LWNpkLQ6fYgA4QBJc15zbJgfIrfIMYge1HKvZT2rco69xXHWQX5sg5U8snVet0Ut+yERTmnzWeO3EODPFqdOOdL3vi2cVsABr4xl4eRcPGOHaw0rE4NbWoqYkFfXAeWkpDWi3EOElI9rjGoCYyv0+c4acM0rQEE9nMeZrI1YjNe0Qy3PnGePcfaRueZ8iEBmdZAWHcG31hXnEDnLywDXdRsiAH64COLS8QzvcG5YOKIDQF/pbb1dIDKOvsxKCMT1uejGrAdy1Kf8Rnj6VtLVIX1vSHmn7FqmQDdyPush8gT6HHshiCdAbM00A+DouxQ8w1E8/RDwbViZuN2vG3/qrU8p/fsKJ9fHEuI33XRTd+ONN3ZHHnlkd/e73717wAMesGqQENKxorxDAI/sL8VB/IYbbui++MUvdltuuWW32267rerwswpyPuaYY7q73e1u3TbbbNOtt956q4wF4E/O2qhOnxaUaYCqB64rr7yyO/zww7unP/3p3RZbbPGbnP/NdQgoFzeoZZSuRCcuueSS7qqrruoOPvjgVf+WF71VN3k9Z0h9UXYG4B/96EfdZZdd1u29997dtttuW/Riww037DbYYIPSD/1zXRyHhrlBnjfffHNxGNk18WuuuaY7+uijux133LHbddddu6222qrkrds+ujMU6LN2BnW4+uqru49//OPdE5/4xG7rrbcu6bMMTs7FF1/cfeYzn+me+cxnFs7RVbLl7KiXMJRdA+Wn3c8777zuggsuKH1u0003LenyzXIf+9a3vtWddtpp3eMe97iiM2wavtHf2LXEhwRuP/3pT7sLL7ywcN133327TTbZpFt33XXLXx474iresHIwM06vwYGzwGhxbBgCSCdKRxrKaAXhgwP+eB977LHd9ttv393jHvdY5QzNKji9xx9/fLfDDjt0m222WbfOOuuU9PBWN3V0HplPG3X74mIANhk69NBDVxmooSY+AV549nXRucnb5ZdfXpydAw88cJVMOY3idHhWoJ3xuuiii0r/O+SQQ7qddtqpOLsbbbRRcX5xbk7v/KBt2QQrjuyaQA++8pWvFHmyEwbe6AB50o3o01DAJ6tg7Nq1117bHXXUUd1DH/rQ20w0ZxU4mxzj/PjHP77IGmLDyDY2bgg5p53x1JdwOf/884vTazKErzaQZ2jbtjpweC+99NLuIQ95SJlo4Br7hr8QOyFt2kiZysdN39MfTSr233//0vfYNOOIxQh5mtO7sjAzTq9w3XXXdV/4wheKETjooINKXvRqIzWEwQrCJR1aB+dEfuMb3yir0xx1abMMDpmBYbvttus233zzYoDjiNX100ZDyVrZVp3wEayYWul98pOfXIyWNBiKX12+EJ5AloyslV7BGwvGVZ3qAbh/37SRsnESzjnnnFUr0zvvvHNxeq30ZjWkOb3zg34Up5dtE7faZKWX80i2Jpv0gfyjBzCkbPGJs6UOJppHHHFEWen1RmjW4e2JieYnP/nJ7nd/93eLkxP50t/YZfGh5IwPHn46S/zcc8/tzj777DIR4ogFOM4qTj311PJG6NGPfnSpA66OkbX6OQ6py7gADnwKdo0N5lNsvPHGxckl7+b0rkzMhNP7s5/9rAwOVhe++c1vdgcccED32Mc+dtXrNtCZUDXwDoV07AxYjlbHPvGJT3R77rlnd9/73nfQzj4fkLHBzEqvwYxzQ6bqItQGawDVKFCuts9Axci+6U1v6l75yleWAcJ1g1wG6aEQOUV2YBAwEbKCc8YZZ5TBIY66PI7y9AeLIaBsba8fnnTSSd1ZZ53V7bHHHkXGBgKB06stHMl71vV72ui3H51ly6yCsWsmmVYgTz755G733Xfv7n3vexf5umfIth+Fuv9fccUV3T/90z91L33pS8vK/6yDDls5/c///M/u1a9+9So7IdBb7aLPzYK8w+XMM8/sfvjDH5Y3hPoXJ0x6bMkswltNE2QTC3zJly2GvCmI3R4CaV+88OD06ntWfO93v/uViXxsW3N6VyamMqWkgH3EINVGSIdPh+k7NM6HdHghXPHEJwZKesKsg8zDGX/H2hlLnrTNECF6EB74kXfijuE6BMJLgHCu5Zk9yX2e6pE87hcfEhmAo88Q3vX5KKT+Kxmj2q+WS3SDU5a44yy0fR/hBo7R1bUB5CmkDoK4OsAs1SVcwln/ytg2V1+bFcRu4Rv+sR1sXhzgoRBOgJN4dEE8+gGzog8N08VwnkNDQ8PMIwNIw/zRBtOGhoaG2cRUnN65BoE2ODQ0DIf5OrStnzY0NDQ0LAfM7Epvf6A1QLdVp4aG8aE5s5NHs1kNDQ0Ns4O1bntDG0QaGmYDzWlePZqtamhoaJgtzIzTO98Bog20DQ3jgb7UDw0NDQ0NDcsVM+H0cnj7Tm//vA3KDQ2TQfpfv89B63MLQ99OjZJpQ0NDQ8MwmKmV3tUNvg0NDeNH+lq//yW9oaGhoaFhuWDqTu+oQbUNsA0NwyH9Mb/BmWNCw8LRZNfQ0NAwe1iS0zuXUa8Nfp2njtevABOv71sTRuWb7/0LKWeSmKsOC8Ek69J/7lx850qfJYyqy6i0Nb3On3S96r4Ao/jMJ89i0f9x/HE+e23GfNt9rnyT1ptJP38x6HOaL8dZ/IMG3GdRxqP6J55rY79drL4sBLPajg3Tw5Kc3qwIQa1I9YpR/ZeEa+qIMXbyzSdv8gcpt8+pTgOccm+dPm3UfBPyT2SrQ319lBzGBc/NP9iEH6Rtwr/OJ4jnH6jqfEMh/Os4TpF1nYZ7/a890pMH5Bk3UjYoR8g/G+Xc9YSkuQ/w7fOcD1Kue/yrkuDc82rUZa0E1HWNjGIznCf0kbxpg+RxnvRcy3Ex6JcffjCK1zQRGSQePo50ehS/Ok2c7ahlPSRSfp/LrPCrbRVE1/rps4zwrHmLJyxWxnlu2inPSmhYmViS01v/tWPdwaK4gjw16nxLQf76kPLG4CctZVDyvhMpLbzFx8VnMQiPcMAT/3RORwOAeF0HSL1qOYwbnl3/na6/nlRuOLkuSJfPNcdf/epX5X/NaxnLNwSU/4tf/KL8LzwOke0d7nCHkoYzvqCOzhPkTd3dox75f/lxwvMh5SknXHBTtnIF8bRJ7okzISR9Pqj1LseElYxaLmkLuuNI97VL8swH45arsuvywzFtP86yFopwSTwQZyfqtHCUJo6/QM8dpdX5p4nIMNzCQ9uDOkobih/g9fOf/7wcg3Bl88J1loFvbG10OG3v+Nu//dvluDbUpWHtwJKcXopYd7hAp4uijjIKdZr7o+ALQe7zLCEDfw2dKMYJkj9liffvmSbCI3WBcM65wTZ1DMTlgeSbRD3wY3Qg8uUs1jKVR3pCuOV6/lM+juW0gYtBFP9aR/AWyFcdHeMUQ87dL0h3/6SMr7IiMxzJDS9pKZvDFa6ph/aAyDzpC4X7lONYh5WMuj3Ihg5HH4YCLtFBjg2dwDNtnzYL92kjsoKal7RwEk8dHOv80eO6PwyBftnp+9Idhch6KJBVJsIQOfdt9Cwj3Nk1nPGXFvtH7uIZRxoaloolWe90qhixKCy4trpOV1+r71so3JdBqH5O/xj0ea2O47QRLjiHd+oWJF3epchtvvD8yCyGHifHlJ88cRQZKMYq13P/UKidxHDBDyJf53UeSN0g+chgnPB8z/T8vlzxSLnSwjl1gPBOWvjOF3lO7usfVyLUfVT9ySrO2JDySfn9tkt6wpCgrxAu4Rr0z2cR4Zi6OI+MQXquDYHINjYi58LQk4aFAtfYv9hCsq3r1NAwDtzWo1og6gF5lNMbJZ4PFqrU6dDpEBwtR07Arbfe2l155ZXd5Zdf3l199dXlFVANvKyQ3HLLLSXvQsseFyK/yCogyxtvvLHUAf9sJ+jzzLn7I49xguFUNkS+v/zlL1cZ+shaAHUQcJFXPW6++ebupptuWuWwDQFlh5vVOpxqXVVHaWR9ww03FNkLP/vZz1bVw71kMAk511wchfSp6IY0sr/iiiu6n/70p6tea2YFPffLOw5Mop5rC+o2iK7rC1l5z/VRWN21cSD6ALjRV3bC0bVZabfIoZaHI1ugn1177bXFbvT1NfKeBeCrf+F7zTXXlPEitoQ+JM9QICt86nbHhz3DG19vA2YZ4a0e119/fbFx6iDE7joK48Ks9JGGYbCkEVKnM/jqWJQ2g3SupUOuDlHwhcCz3ePZQgwlp0Sn+fGPf9x95Stf6T7xiU90Rx99dHfxxRevct4Az6uuuqo755xzuvPPP3/V/dNG6gGOOSfPU089tfvCF77QHXXUUd1PfvKTUi+IPOWLExZZTAKMO8Mj5FU6+UnnFJ577rklxDDllas9veDaiSee2F100UXlfNogG3oI+F1yySXdD37wgyJruusazpdddll3/PHHd9/73ve6E044oTvttNPKYKceGUQ8i+MzTmi3egAVT7sq05HscaXH9JpOnHnmmcVpuNOd7lReccqrfu5dKJTRDzXwElYK1J9ekC/HIXoC5OC6NuljWjJKe+hT3/rWt7ovfelL3UknnVT6I+DWb8NpQb/SX+hx5BR56mff//73C186zP7SWfkdUy8h/MWHApvLLhx77LGl37FjbEK4qWP67rRBrmyR/p5+Hy7iFnzOOuusMnbMMqIj+hi7S976HT1ie11j35Zid5VRh4aVjSU5vRyzv/7rv+6e97zndb//+7/fveY1r+muu+66Yqgo66QMgmcrI4bSOTCsn//857u/+7u/6772ta8VA/XRj360e8tb3tJ94xvfWKXwVso++clPdu94xzu6H/3oR+U5QwBvnGrDbpD98z//8+5tb3tbd8oppxSD+6xnPavIWv3kZRDc5xjUzxgXPB9HR06V8hlUwUrNt7/97e5973tfGbys4MinzbMXi4P5uc99rvvsZz87mNOL/zrrrFP4mwzh8oEPfKDoKaOKL8f8U5/6VJlk0JuvfvWrpW5nn312uU995FM/9RontGP6ibiAMxkrV9xK3he/+MXuz/7sz0od6IU6vPe971016TQhcU89uVsIUrawkqGN2Ye/+Iu/KDaNbfvbv/3b4kBoe/KJ7Zkv5B9n/6STJj1/8zd/033mM58pkzi27I/+6I/KJD42YgjQV05KkHpbxcPxrW99a3Fu2OM3vOENZVGCDrsP9IXo4LjlthCQ8emnn94997nPLQ6vSQVbhzMbTb50YCg500UcyQ0H/T4yZGtxJVuLO7MM9WCLLTK8613vKjJXL+2eyZNzoaFhHFiS08tR2HDDDbtHP/rR3SGHHFIcH8aBgcsAOgmj4JmerZOnHPAK6rzzzivxZz/72d0TnvCE7nGPe1wxqlbxrIRwaBheTi9nLR1sKKiL8tUhPDnr++yzT3F2H/GIRxRnxgokY5b6TsNRV05kXZd5xhlndEcccUT36U9/ugyynC7X4hAzVtK+/OUvr5LxUEaLbHGz6s9J5MzaugDqJtBbsn/Qgx7UPf7xj++e+tSnFp3ec889Vw0kjomPE/jhkAHUIEB+4spzvPDCC4tjvscee3QPfehDuyc96UndXe9617LyK30pjm4QHo7CSoUB2Gqk7QIPechDukc96lHduuuuW+xG/bZlPrpQy3ecsBWHPrO99OHpT3964cl2cM7p96TKXhNSLj2OHtFPK3gf+9jHuv3337/0L3zvfOc7lz7Jbue+WvekDVUPfE8++eRSPq7PeMYzik3G9Zvf/GZpAzowFD/lcgiF6KJx45hjjune/OY3F1249NJLV209m1XQ14985CPd+9///mLLjBuRKZtIdzKujBNDtVvD8FjSKG4wOOigg7pDDz2022uvvYqCMgoZHFaHenBdjAIaoKG+VyfZZpttCqcHPvCBxUjttttuJY8ZL+Ng1U+ebbfdtlt//fVXPWcI1PUX55RbBdlkk026/fbbrzv44IPLkbPDufSqKo5J7suxlsM4QabKIzvBuZWczTbbrNt66627jTfeuFxP+eIGhO985ztlxYyMk2cokNkGG2zQbb/99t2WW265iqu6qBOHl7NDN8Rd33TTTbutttpqlbylZXCZJJSjvDroU1bW6fPee+9dHAcOA65Wo9UjPLNqvBD0y0tYqaDf97nPfbqHPexh3b777lvsnAknOYM2ig7BfGU1Drm6X/+yreHud797d9/73rdwZSs4Bt6uZNFhFoAHx4sDZj/6AQccUDjjS585afiq16xwBm9XLKCY+OJsTNH3TDTYaHXq68E0kbIzfomzT7Y7bbfddsV20eNcn1WwuZtvvnm34447Fu6As/p406XPpW4NDePAkjTpsMMOK4bXyoLXrgZcjlD2cy5EWeWdLzyTkcxAD44cLAbVCo08nK68LmEE8Lr//e/fvfjFL+4e+9jHFuOQgWwI9A29yYKVUUaAowheW3NwDHTCUpybxSI8U+bd7na3siJqFZ2xAtfJkuNulcS+Pbqx6667FoezhucJNdwv9NPHAbpgteb5z39+0Q9IOY6cR3vgOJC2k1ihNhhbYc2KVcIkEB1wxJWclRWDn3OvVemy/kYXyJojEZ0Q8qz5YFR+aSsZbAhH58EPfnBZdeL4eBOw0047zavPrU5+C2mbueD5eFnl32KLLYqd8FzOg0lddGNocMBTX3rLFptIbrTRRsUZW2+99cpYweHlQOpnENs+NLS5iTBbxwarC4dXHcg+bwiH4oqPssktji1d4KD/wR/8QZkIWTwZh85NEsaIpz3tad0LXvCCos+QMTmru85Tx4aGpWJJTi+DYEb8oQ99qOyH1NHM3hmHhRiEhRoPHSADUDqDzm3A2mWXXbqdd965vOqxv9eeXnxsE6g7DmOhMy1lg/xSURv4GDGvVaWnw0s3A2ZkU+8YMsfEJ4GUJ4hbyc8AUPPOEW9O2He/+90yaFiRtLLqPvk9Qz5HARJXX/fH4I0Tyg5PZTk38ErjQJhsqJfJhkEDBx/aeIVc3zcp4xtOOULKck6GuHmtav+mLUT2wGXlv3bMF8JPfvVLIP/oZNLEVxLoRZwF+78F8d/7vd8rOjpKvq7XqGUX+SVPP+9i4JkmPCbx6Y/6qHN2Qn8bCuTT78P6F8fX5BdP/MOXvuHrvshM3NH5OOS1GJCjyTDOOALdYIuz+DA0IpvISSC3TCAix1kGfgJ9wDs2iA7Ri0yellKPlFE/YynPa1i7sSSn1z43+7QYhle+8pVl9U88DuVSlXUuxAilgygjjhWn8cgjj+xe9rKXFcfFvtiXvvSl3b3uda9V94FOls41JHAgJwZKqJ3KpEE+anKtrod8k5CxcuJ4x3hKI+cMquEdrgYK+32t8t7lLncpXzvbs+WVKyfthz/8YRkwPDeTDXH3Gxi1xSQmIZFPZIer1SVlk/fDH/7w7l//9V+L/npLwMG5xz3uUd4SyEdXBPcL44TnxbCnfQUrd5GriZw9xo72oluJ5kRYfdTfDMb4QerasDjQ7QsuuKD7kz/5k6KPVqBe+MIXli0O6YPsW/rAtEE3tDUu+NEPaY4mcFb7XJvPFrNJgHyiizgJ0nCim7G34viSI12nw9H39LXcPwTSD3EMb0GaSZE6Jd8QiGyUjwuOgjh7Qq65NsuoeUdv8FYHafElGhrGhSX1CCu8Xk9RSnverEA5cn4objrlpOD5MUQ6jA7C0fW1rX2wvry2L48DZlWh5pLOJgwF/MMBNxxtZbBKnX15jJf9vHk1GEyat+fHsIZfDJFjHADXasPKCbNtRJptDvZSe+UqWDnJsxzTdkLKEh83MoiGpzhZ42CSlP2GBjPOjVevBuEY26yeuU/dxwl19uzI1jk9xi0rYWTH+b73ve9dPlp6ylOeUpxy93irEU7yTkJ+Kwn63nHHHVf2UVtNpRt+OcWvvGib2t4MAWXre/bU61v0Fy/OmXNvu7zZGreeLgQ4pp8LVkf1LW8FOeOumbTZp85WmHgG6aP1/UOAHcPZFiec8dAPbdMw2czixFCIbMKBXsZekWH0NPKcdYSzoO0hR7Z4SH1uWF5YUo+wquCDMEaNk+Z1a4zwpDtbv8MrT/kcb3szGX4DE6Pla2x789KJgvoZQwIvgcNlz2nqgbfX2Y6cGx/g1ajrQ+bjRv38yEkaWYdz4q6Tt18VsNfbB0BW1+mHwcP+Pa/pGTBcw7e+13GS9Ui5OXekO/ajeztA1uKO9NkExCqUOtb1Hzf6dVZGnGxBn7L6aN8xORoA8DYwx+lN3oalQVtobxMMk0yyJ3f6oE2AnOUZCuytX8vxs2W+0qevjnSCjWCXh+SXPhKd5IhzbvUlv0LjDZAtUI4PeMADbrMdLjpcP2MI+AaELfMLDn4ikA12NCk68MADSxvMCmoZiUeHIXKcVeAr0N3UI7oA0urzhoalYkmW0dYBX7XajM5AGIANFBmEJ2V40wE8X4jTYKVD52FcOY72QFr19durXrsH7meI7ZN0TGebNnBPp1YHhvR+97tf4cVJ9xrbryBwFP06Rt/pDSZlFCLfcKy3rThmxYmzLh/HdYcddigfAQm2DdjX68Mg/K24x+kF+T0ncc/I+TgR+YL25nw7l57X1nTHF/GcBwMdHTYBwdd1/OQfNz+yVBaHKrKNXARlKp/srThyGvC0UnbPe96zfPzR16OGxYP9MmF7zGMeU3SWTTP5oTNAzsKQcqbDfrbO6i598HbLEW/fWbg+FOhgQsAe6/t+Xs02JzaZXbPy+zu/8zvF3kF9DxkPCbbWrzUAB91WPm/cTDr9oo461XyHgPKjh+QVOyDNQoPJRL2KPotIf1IXMqe77F/d/mwj+9fQMA781l/9Gr+JLxi+FjYoCIyawUFnM0hDjEKtwCDdK2Odk0J7fZRgRYvj5Kv//n1BOomjkM7ufh3GwGUVLK+pvSY2c+ecx1C4h8NmBcI15wuFZ3nt7NWnQRHvxUDZCZwwezd1cnthGddXvOIV5afXxEG5rssvDuo9H+BrhchqEBnVr+lyBPGsKIpHbknPOUfdLzho92whyYoYfvKQM90g5xgvzxByLi+kbWr4KM6qkI/McA5qvnNBHrJRDr1UX23FOQDn0WO6Z7LEkbSSxumNnFOn2mn37D4H55wRX35bFbINgVyAzPr5PZsc9Ac8nSefIG4g4BjgYjKEs5988rvC4tlOJK/Ql9/qED7q7dVtBkvtincc/hz7/JcbyFP70wk2LU6vNDJQf+1AB/p9juyl6zPyxKbpc77499ZDqHV4MaCDOOnDVqJtxaDPL3rRi8rzx9FOJlV+mouDp5z5IuXqL/TQucAWWyCxRcAEk47Zp277GbnKW8uz5j+fupC51XgTVuV4/lJAD/S53XffvWzZY4NMMp/85CevknEwH36joL9x/NlHtn0h/RaUS98cYzNiP4DOciTrbXFLBT3OzyfOxXex8lAX8mafydd56uKZi3lufuHG1jp9ml3Tf7KY4ZnaumHl4Ha/VqqxTVc9SoiC5rzfOSizD5oYRgNC9nwyLFZlORv+WGIuJU9H71/PIGPA6YOCU/gYK46CfM51gLnKWh0YWgOOP2mwmpmfw1oIIq8auBl01CW8s7+zL+OFAt+Pf/zjZUBnvDlUnpNnOgbKizMWuckjXRtoP9edk2H4uUa2HHjtK496CPUzQN4a4ZE42Ff5H//xH+XjRJMUqPOtCfJpK+CQkquBHB88XRMYSHXihEbm0lN3XIVw91wBl3B1bvC1TcJHfLZ6GHRcr+9NfpCujFp+KTPPxlMfwc11hjoDpbzReeeuzweemzI5Cz7c88bG5M0eco6DMqKDjvOV+doM8kg9xWt5pv2gLwv56A/9omfsmWDy4yfwOJCCfjcOsBEGc+Xqf6NWyRYLzti//Mu/dC95yUuKrVgoyE3fIS98BDzZfbKRTqcEyHX31f0NapnPBTbGSuzb3/727lWvelVxcJYK5eNay7juc0uVs/7m416LHOyRvj1fpGy88Il9w4sMyUMe5/OR33zhz338iYTvZVIW5AgLkUt9HzmTcd3+kXXOFwoTC1tTOOp+XYpdMwET6J7nD/lmpGH6GEtvoLgUkrInRJkX0gHmizxTmYKy4lhZRckqJsXmcFi9otjp/O7JQM55mATHNQHnGCp8xHPO+OFtZTSrAPILke80OONFZnVZ0gzsgnTcGCrpHC9pzh1rpz0GUrqQ/OAccn3c8Ny0Pb4MnzQ6A7iROb2xukP20Qv88ZwUt8CzlQG40gUyTrnS8OKIZktJrTfiQp7RsHiknev2SOhfGwramg7QBSt69CJO05DclE0fySmyqmXGLuOrD7ILyece18kYat0fCsrGEee8AWHbwnFIpO9HfmwYXknHk+2aBa6rQ9oXb/LFF3+gzzlPWkPDUjHWHlEbW/FJG6362en8kHLr81lDn1vNF3LerwuIMwKTrpfnM6bhwTAJ4oxRzQlyLo/r8gnSnddpkOfW55OA52dQqMvAM5DHuevh5Zyc63vGzdHzcFNOZJsgHcILf0jecMmA4Fx6w/ihPcg3bRPZDwUcIDyG5tNH+k1kVutr0oPUBeo8Q6PPJW3ftyNDI3ajj/BdG0CmWUipx4la9g0N48BYnF6KKfQVc5KKmjLjCJjVhoMjh0FaID18ZsVoxalJPVKX8KvlV3Ou6zJppMwYViGydXQuj7ggH+OV89xf1yn3pL7Og+QfJ/J8z8YvK9L4BXW54oL75MUz/Ot844DnRW6BuPTob+RV55UWGYNj5LkQ1LLvI+WuNEQmkTnUcqrTR0He1cl1HIg+Qs1nTdwmDWXjFh2uuczFGVyL/pJdVvlmAbikn02jbecDsos8yToBcK2vzzIiS5yNGziTN971ZH5WdKFh7cfYNKnfycRjKOaDhRiTfkeuz8Xr83ASZrHj1DLro1+XQFoMwySBW9pEXNCm0jiDGdgC6c5HtXvaN/XNuXj/GeOGMhnQlC8EfR45B+fkDOqafOOEZ+JWt2dkZBDIeSBv6hCudXyh/NwDuS/nGUBXIvoydB6dFl+TjNMWUMu1Tl8q1sRhSOCWRYic1zrch+sJOc8x8VkALuoxS5zoU+xBzW2cujZJpI3ZGzqDc8YVfW4l26GGyWD2vMCGhoaGhoaGhoaGMaM5vQ0NDbdBVl8axosm14aGhoZh0ZzehoaGgrXhdeisY5Rj2xzdhoaGhtnAzDi9bRWkoWG6qPtbc3jHi+b4NjQ0NMweZsLpbQ5vQ8PwSD9s/XFxaLJraGhomG0M6vTWg0QbKBoaZgPpi61Pzg9tlbyhoaFh7cDgK73N4W1oaGhoaGhoaJg0BnN6+85uc3wbGoZBW6kcL2LbYtOabWtoaGiYDczMh2xrgh+pHvqHqmvnQFzInzWsLY5DBuPwzXmdBs6HAh4p39GPrs/Sj5TPJZvogevJ05fzXOdDIBwgPMh6FKfka1g90qb9kD85EZ9VzDK3+YDs16Y/M0j/i44kbW1Dn3tdn4aGWcPtfq2cU9dOhunmm28u/zj185//vMRvvPHG7rrrruu+9rWvdQcccED3mMc85jYGQF5Ub3/72/8mZfrIv2HhpQ7+lewXv/hFd/jhh3e77757d9/73vc3OWcX1157bffpT3+622677bptttmm23DDDVf98039t49DGd8YzHAi7yuuuKL713/91+5//a//1W277bYlPdemjdqwQ30e/bjpppu6Cy+8sDvrrLO6Rz7ykd0mm2xS0qMz6pb65W+Opw28wwn373//+93ZZ5/d7bHHHkUvcKYbd7rTnYrDtt566xXOtV64byg9mVWQJ1vGLtxyyy0lfvXVV3c//OEPu5133rnba6+9St+bJaQdcXcUrrrqqu7Nb35z9/u///vdne9859/knF3oRxdccEH3H//xH92rXvWqbocddijp6aeQ+CzoLA7sw2mnndbd5S536TbeeOPuDne4w6p2mFV85zvf6c4999zu937v94pdINPwZR+cs4PRoyFQt/M111zTnXrqqaUf3uc+9ylyXn/99Ys9W2eddVbZtoaVg5lxejkKjp/4xCfK9R133LEo5K9+9auixP6iEH72s5+tMg7ThPJ0anwSx0tn+vGPf9xtvfXWhXPSZxXkx9ByanR6fCGOF+6COg7hjCm7HnyFG264oTvxxBO7hzzkIYWzPHRjyMEhHMnIMW3unB7/5Cc/KQZ3v/32KzKWP7LO5KJ/7xDQ/8j0yiuvLI7awx/+8DII104v3s3pnR+0c+303nrrrWWi+eUvf7n0PXIUIjf2hB70ZTst1DzYWDzopwUIdmLvvffuttxyy1XpswrcyPm4447rDjrooOLc0E/p4c1mqO8Q/a22D+LkaTLPTphU3PGOdxyE10Jx/vnnFzlb4KHbFqGiG0L0WF2Gss/Kx4t/QY9xMTbTC/Ysji8/ojm9Kw8z5fQaLL74xS+uUlAGQt44B0OiFlO4WF3A+Vvf+la30047dXvuuecqvrOK66+/vvvSl77U3fOe9yzGNh0+MlbPhCGAQyY7gBeH7MMf/nD3qEc9qjhi8gytD9o5PITIjNGny5deeml38cUXd/e73/2KUylPBt0MwrlH2hAgW3LGy+oNOR944IFlJdLAQNbrrrtuqVNzeucHelE7vYKV3qOPProMuNtvv3236aablrxkFxkmPiS0Lw7ssgnb17/+9e6BD3xgt/nmm6/iOKsgb3K2evqwhz2s22KLLW7j5LLVqcOQ9cBFv6MnFkusTt/97ncvMo4NHpLfmmDxwVuspz71qavsWB+p4xD1SB9SPvz0pz8tMibv/fffv9too43aSu8Kx0w4vQaGOL1f+cpXinI+9rGPXWUABPeA1Yi5OtukQVTpyOJ4qMdHP/rRsr3h4IMPLjzT4WYRjMAHPvCB7kEPelC36667Fscm9UrdYAC1WAWDL91I/KKLLur+7u/+rnvmM59ZVtQj+6HkHH3syytypMsMrQGYo87QJm8ta/H+c6aNcLG94Uc/+lHZ3uDVsJVeg0M9MPSd3ob/G9pT+7NrVnbZB86Y18K2jey2227dVltttWqbCx2O7gyJul1xYSdMNJ/4xCcW3tHbWYXJG84nnHBC96xnPavYCfIVIGPGUHVIudpdf6InZ5xxRnfmmWeW1XQTTWObfLMs569+9auFs61mELnGyY0uiw9hn1N+4vrescce21122WVlIY1dM/lkz+qtWw0rB4M7vWbo4gYKr7GPOuqoopyHHXbYqk6jA6VzxYgNhXQqnDLAfeQjHynOwv3vf/+ZNlhgYHj3u99dVkN22WWX23T4oZzIPmoZCxzIv/3bv+2e97znlcHBNbozlC7ghEMdF+LA0mOrOAaHxz/+8cXQggEvznq4p57TRvhm29D3vve98jqbU+YNAM5Web0C9KqwOb3zQ2wCu9Z3eukuO8EhowdkWevPUP0vHHDHQcCZnXja0562an/sLEPfsg/ZNpKXvOQlqybH6pL6Da27kXH6vv7G8fV2xbcK+V5laJ6rw5FHHtmdfvrp3R//8R+vkivMioxrGCNsxfDGwraMQw45ZNXbq/6EvmHlYFAvJx0kR4aLkWIYxKWLx3gJQyMdO5ytMJgxch7i1OT6LAdchdQnsnUuDInwcQy/vGYn3wzO0ocIkU/Oo5v4CeKMKaPqXP5wzmqOc3A9z5lmCJdwk4ZznODIuWFpIN/alhmIpZFz9FkYCrU+CIBvJpW44ueYvLMYcPzlL39Z6uDcMX0LyF4dhgQuOAU46nOOtT2eZdBb+49jGyJ/vGfNXuBKL/ATj3y1QXS9YeVhZlqeEnISgJJGKWvDBUN1LJ1lLqNkVQevDGSzDvJkbIX+wAC1vIcEPuQt5M1AOOIdh2HaAYdwq+P1uXwGYYHehHM+/OjnnXZI2QKkz+HlunNcrfRKa5g/yC6BTPUzcUfy1P5xcpI+1CCMA/sFOIQzjj5UYtPogfS+Ds1SoKN445q+VevtUPKtUfNJvyf/7KsfUg/mC/aMXtCPGtGbWQA5Rydi33ATyJjMjSUNKxODa6nOElBECgmUM4gCy1vnnyaUq6PX5eOEb5yHcJxlhLNjzhOPfMk7H5JNG7jU7R1YTc/gmwEjhmyoEHlB+CZEppkIOY+xTd5Rz5xWCMccBXINL+d0IA5Rw8JRtzFZZtJGtnTBdTodeQ8RlE1HR9kwDjqeAkif1aAejn2uQeLqNyTYLQg/Idxj1+r2mbWAqwC1zgT9+LRDOEWmQrhA+l3q0LDyMFjLRwkhiukovVZWCgxR6qQPgVFl18451PWaZYySZwyYtKGMgrL7Iai51elDITKsDX+fdx3v54OcD4FwgNSlz6fO07Bw9GWa8/Sv/vVpQ/v2ucTm9vuZ+KyGGkPKcy5EtrhGvuFOznXarAPHWsa1zkBt54ZA5Jp4zS86nesNKw8zNd2hkDHAAYVN+pAdKeh3qDi9SZ8FjqsDjn0Zpz64R959Z36aqPlFrlbJskriemQ9VIhhF4I63pcpSMM99cu1IQJEtnWor1mhpgfis4Lwy7FGXbehUMsPnNMVcqxfCder/46R/7RD+OUcpCV9VvR1viFyFYLE6zoOBbLsc0s7OLoenrMYakQ36vTEU59ph3Cq2xycC+mD4dew8nBb72eK6CsjA5sBIOlASWuFHhr9joIzjun8s8BxsTAwzyL/yDXc6Eo9UE87QOLhlfToc/QX6vvCvUauTzNAZAh1uiP+o+Rco65jHZ8U9DW/iGCrQLiJ+8lDEyJBGvS5TYNfyhFqWUWeSQvHpCcMARxqHuLRZ+e1TJN3lgOusceB9KGBA05kmjEtqMeQWUfkXPNP3ZImPnRd+vwEss9e3lyX1rCyMBO9rCleQ8Mw0PfqwGmo+2OdVqdDf2CZJHDw03Xvfe97y28Kc3TtNxb/p3/6p/LPVvhxHhzzVgAy6E0TkVdfZg0NDcNh2nagYfYwU1PLNkA0NAyD2klLgCEHiXBwxMNvbPpHs8MPP7x761vfWv6wRNyff/gZpaykAecX+k78NKC8UWEU2iDc0NDQMD3MjNM716DQ0NAwPYxy0DhmCdMCDhzWQNwveOy8887lr7T9re83v/nN8t/6++yzT/kd5/qVqvz5pYxpI3IaJcsh+DQ0NDQ0/DdmZntDPRiMGiwaGhrGj7mc2br/zeXs9vvsJBDH1/P9te8111xT/sbXv4Td/e53L/9k5Tecs6JbO5zSUr9J8auRsmCh5eW+hoaG8WJUX2z9beViMKe3HhxqpZzG4NTQsNKRfpf+Fodt1GAwnz457kHE82xR4LgK4v4a19/Mbr755uVvUP/sz/6sOL3veMc7yl8/146vjzL9zmy2PMynDkNh3LJraGhoaBiNmdnekAGroaFhtqBfjuqf03LWlCPstNNO3R/+4R92T3jCE8qqL06Pfexjy4dsG2+8cXFwpfkavoZ7p/k1efg2NDQMi+ZTNPQxM05vQ0PDsKid24Qhofw4q3j5C9QLL7yw+7d/+7fuzW9+c/eFL3yh+853vtN96UtfWvVTRPJzOPPrDdOsxyzIrKGhoaFhbsyE09sGi4aG6SKrkVmRTB8c1RfrfNNGynW0vYGTu/XWW5eVXiu6tjH4KTM/WcYplm+aq7qj0GxZQ0NDw2xiSaMD437TTTeVj0t8Ud3/WnrUANrHuAcIv915+eWXdyeeeGIZIH/wgx+UAbHmdumll5bf9zz++OO7H/7wh+UL8CG+9E55ZPejH/2o8BHOPvvs7sYbbyzXDez443vCCSd0p5xySnfJJZeUlSzXE4aCsq3CXXzxxUXW5I7/rbfeeptVwyGhfPL88Y9/XOQnhGP4+dODc845pzv11FNLUB+6FEyyHqMcypTHubvqqquKDsgXDvjSAzKnG+qjH5L5QlDXK/GcD43IJau39u2ee+653cMf/vDyEduOO+5YfsIM1N0fVQRxfBdTF/eQr2eyDdpgPs9ZnewWw2N1SFl0FM8rrrjiNuWP0qlpIxzCS5s44stG+wBRnj7XWeAOxgR9j71g19ho+gCR8yxB3/f71WzBSSedVOwCG5G3IH0MWYeUrc9Gxsa3s8466/+S8Th4zmJ7NQyD3/qrX+M38QUjzpqByCoMo+ang3x0wnBRNKG/8iLNqgzHTYdkuJ0LVm0MZrvtttucxs/9c1276KKLuqOOOqp7//vfX46cWnm33HLLwo2j86lPfar7+Mc/3n31q1/tzjjjjJLu45h11llnQQYXD88jA8/3RflC4H7119k/8YlPdJ/+9Ke7b33rW2VA8NujW2yxRXHWvMb96Ec/2n3ta1/rTj/99DL477LLLt1v//Zv/+ZJ8x8oDOYcJfsjN9tss/L7pnNhLjlLDzjlJj5HHHFE99nPfrb79re/XRxG8rDP0kocLESufaivCcy97nWvbr311vtN6vyeiSs9MwjQBzL83ve+15133nnFYdpggw1KGzinE8oxwJE7ndh0001LOXEmM3CD9D4H5/SZ4dYn7nGPe6yS8Sh5el79/FzH2XPIEp/zzz+/u+c971nyCfjS38997nPlOoeerLfZZpvu9re/fXnGfJDyOE0//elPu0022aT8Hq6fB8PbM/XnHPv8J426vGuvvbb0NX1D/fVbOO2007r73ve+RefSJ3JfX65rgvycXI4Du3bllVcWHacnZLC650TXPMMxNo2NsC2DXPVpzwo8r9an+SK2k73jMJDHrrvuWp4h1Hq6EIQDzp675557Ft4L4SavsukLpA2c61fHHHNMd+aZZ5b2o68gf/iG+0Lajjw4fORx73vfu1t//fV/c2VxUDbnnL342Mc+Vn4ez7P1rTvf+c4lD14LkUuQe/Q3gQzodOS1WGgzevvBD36w+8pXvlLsHF32ZsTz+/rgPG0133qwMzgffPDBv0mZH/plOBdM5unDhz70oe7rX/96kTG98IFq5CEfLEbWdELfM4Z4JrumDX3kylZ4pnjDysGSVnp9Nf2Rj3yk+8Y3vlEcnj/6oz8qgwQDBIzXUjvyKKSj9mFw+uQnP1nCgx/84O41r3lN+XkjzsFnPvOZ4vDpXBwzDtSLX/ziYnD4/ZwKfMGz1SEdc1RZ44DncsrxJbeXvexl3Yte9KIyIHz+858vxsDKrz2Me++9d/fCF76wu8td7lKcM1+xG0DIlzwyQEwDyksw8WFk8STTww47rMjO1/VWGeSJXIcALpyld77znWVV4fGPf3z3yEc+ssibHBlx8jYRMmg86UlP6g444IBifLVLnsHhqScZ44J24xgFyqLHgsmQyZs9q5xSTjCDLc6B/+53v9v9zu/8Tvd7v/d75T4TJg7wcoO6kRPdf8pTnlL6sP78j//4j93b3/724uzd9a53LQMafcs9kPP59mETODL8m7/5myJPk7m3ve1tZaJI/pO2CWuCcjm7dPnkk08u9hdHiwV0JvY29Z82tBNueESP9X/p+tmRRx5Z+hWHTD1cx3WUPNN2Q4BdO+6447p/+Id/KJNN/Qze9a53ldXIvFUYSg/Is9/G5Eu23ljh6/er6fJb3vKWkp88HQVIu0wD/bZUNoecPtBhizjGN/1P39b33CPIO6QuNCwvLMkbueyyy4pz+exnP7s4CgwBpaXMMWST6FSe2+8EyskrMyvFvuo24/cq1EzOChHnx2pq0g866KAyiOLPOfZcvBnjuqNNyrApw0qz1cv73//+3f77719WrKxyG2DzyppsDznkkDK7xt0qrS0anHiDBn6eNQ3UshC3oslIMbDqEJ7kbSDWHkOCI2t13OqaVat99923yPB+97tfWUXlQHLOrThweA1wD3nIQ4pjLB7ZkjP9HrczQcc4shxq5XAWlEGXOeQmNs7l8yZCXNvjs9deexV9MdkQOOZW/JYDyF1dU3ey1y+tzvsFh3/+53/u3vjGN5b4ox71qCKb/oAO7k2YD9guDs8DH/jA7tGPfnTRBRNjbZFnL+R5kwAeVtu0NfsA2p6dq2UwBMg9k0NtmEm5fmhhQT+z+haHdxRX9wlDQv9jw9hiNo0+sBtWIS2asL1D6kHK1j/IkLzoA85PfepTu/vc5z5lAcKqtDR2rh7XIvch+KdtLTyQs1X5cH7Qgx5UdMabuaF1oGF5Ykme0qGHHtrd7W53KwOzVwiMHcNbvwacRKfKM2sDr4N4Hcvx8pNG2223XXkt53qMKweMI8b5ZbisUFpxsIKUV6WeHcMQTKIO4LnkxwHHG1+DN+PEmDnnqP3u7/5u2SrAOTNwcAAYs4Vux1go1vRscvXayMqH1/icca/SHHFj1IZ2eumi194mQRxzr+/pKV6MqyPHgaNjQDYp8ubCwGy7ChnUYRLwXG1OR8XxS9tzbDlddDK6bNuFCZsJJ70ga+lCnL3lgMg7r0C9ZhaOPfbYMmExYNra4LWodmQD6nYi0wyc8x1A2QGrTg972MPKCjxnl25oD/riOdpBGALqRqfx4ZCZmLF1gG9s13zrO24oG4foonOyIjt2lmPDdhkncBRyj+OsIPuO9T/yzR+i6HucyHrVfwhEVtFDbW9vrH5g0YHNI2dH/UAf0ibui7yHQGQmkK9Jpm0HxgxbyYwj9Js/gWfsYkPDuLAkzbfCYgWN8hqEOGp57ZPOJYwbtaFJBwJ7VB/wgAcUB5Jjy6H1iopT4BUoR4Zx8PrHtgKvB71Gkc+KZVaVdDodzXNTh7rMcUEZVnfx5SwaYG3FsIrDWDG4VhfUiXHA1zYCzq/8nPxJyHe+YEQZf8GeMa+XGVMDGueSvPEe0mil7a3YGbDoqfa2is6pJEOOO65WhA1o+QjEiiru9AImNTCnjOiycgyyHFsruHjnGnAeDjzwwFIvfU996A6HzaCxHEDOkTcd0p+1ma0e+oFBUd21mT3vHFNyTF8Vr/UuslsT2DPOZD2Ztzc7K5ZQt8UQwIWt22+//cq2J7ZCXdm2yG0oRPaONQ+2gVzpNP31dqNu41q2NZI+bVjJZRdMOI0HwFZ4K5exYkg9SLmRnT6CM7AX0VdyZwPTPyD3wLT5p2zl6tOO+AYmc9LIHqJLDQ3jwpKso1cmnBsrlV4HU1D7iihsFHXcCut5MTgMpiCukwugg9vv6EfrDYq2B+Bn64WBwYDxvOc9r+zX8jrlwx/+cFmt9ArOs+oyIGnjhOdxGhlUR6+mjjjiiMLJIPbQhz60DBJ4ZLarfhxKRsMKl1m968K0UBvLyIRhzbnruJr8pI5C8g4BnMiQY/jFL36x7D/npD/ucY8rr8s5vGTIwfyLv/iL7lnPelYZRHxc6FivNqT+40a2OJCT8oQ4BMrGL3mkkSlnzKTtPe95T9EFEyjO8HKCunJAn/a0p3XPfe5zu91337173ete1/393/999y//8i/dq171qpKm75IJRO/IK47XfNuN3rIfnmcLjLdGVvhMNtMmCUNB/fCs64QP20BPXI8tnDaUTV+jpxC7hRsZJs31hBqeAaOuTQvpc+xzrUOCa7nuOATwwAs/8qplJj1H7SCQe/IMDdwguoAf4KfPqhPZykdvhtLlhuWJJVnuJz/5yWVFjAPh9cTOO+9clBUoLCWOgo8LnqdT5PmMjqNyHa0G+djAfj/O7hve8IaybzdfyBoMOZReC0ozsOl0XmdxfsBz+sYu8XHBM5XLqYqza8Lw53/+592rX/3qsvfUSpMVaSuO5Gvf0ytf+crirPlqPytQMXyTgmf3n592EEwmaqcDDMpeV+W1cH1t2qAbPvyiF2T5zGc+s/vTP/3T0v5Wbuwps7L6iEc8okziOFFWo7SNulnhYYzJIPo9TtBh8iEzepYVc2kZtOSxkhNnR7/zgYoPQWzdePnLX17eCCyXAYKs1Tn9HMheH+WU5vWyPNqJXMSB7LSXc3k8Q5gP/GLDv//7vxcnlyw53N6qeHWsDG2SZw4BZQvqiEPslLpm8hk5DAFcyK2WFT7ZeoFj7FWuJTivMZSMgf7o99lTL0TH/AKH6/qlugwBPGJT8cIFXzLUP2Kn9A12wzaoUbYhejRt4MnuKjsyBuOIepCx+kWHGhrGhSV5clYirZr95V/+ZfnKnOPoK2rKTFEnqaw6ieen0zrq7PZj+vLeL0lYpeGIM7RmjBwwjphVMYGxYBQ8i/PjNZBnJdSYVF0MrlaZyQ1n+7FioOyJ9ZM5HFzOF37qwRBk1Sno850GcPQ6mIy9Btb+5OoDR4aWI5mfGBtlcKcBgy1u9MKr/6c//ellQmErgIGLk4sjXfCGAm/30AnydY28DTKj9GIcIJvosiMugJ+48jPIypvfExZ//vOfX3SGA2+wGErO40ZknX4uqKNtKlbg/eKKXzvxqxz6i32BZJR+6t7YhoWAfeDofuADH+je9KY3dW9961vLlhcTZf2PfCehA/OFOuFAL9L/U2cOQ+o9FHDRZjWPtJ+0OGt1uwo1It9++jThbaDJju1xJlrqwr7ZHmXBRBukDkOAjNLX6T3dZMscfRzNjlkUsYWA3bC/1zGyDyZdh/rZ4to/0GfVg33OJFZfI29vV9QvdRxKzg3LD0v6nV5OpIFW8Ere62EOBae3NrwxYgEFZrR1AM4bJyPBh2YUPr85uSbII6TDeH3NiTR46Ux+asjvTXLGdHwrNlb77Iv1uts2CDx8qZ2OFu7poCmjD2UaaJSr/u5fKA4//PDyszKeA7Yt4Mxx5JAL9iw6kg2+jJrX2D4K0QYwH1kBY7jY3+lNPOkCGeGGEyfdSrs9ppxKXw+TSy3TxYAzutjf6bWKYODy8ZP8dEy72/ZCnpx26bbq5CNH8vHhh9VeX25D6ltjrjQGfL6/05tnzHWNngpkqM3J0URJoMsGObzpfAYPk435ImWqr73kBk46ZaKIdxztHPscJ4m6LHETPvzYDHycc4TZHPbC4J97ah1dCDxX/em1N0PK82x7UZ2T/1zPVKb7OBKci9g0fdtE3P1WsNjHoH7WQrnKz07QD2WyB2SwFIQDzov9nV7oyz/njuydSbxna7/kS94cFwL15yyRs+8gahkvBtqZXbPoQN/YeG9XlOENpz4WfVso3+TX3wQyoBv613yRcslTcC/bzibY8268Y/eMdT7MNGlL/00I+uerA9uJs4n2mhBu/WenPP2X/hoz8PaRtsUJNs2vZVhMWdMYvCaQA7toDPFBIrum3ZStr4dHw8rBkpYEOAR+95QRsIXAkbNZdy5KPwkwSvUApHMwTn6ujHNL0Tk2nEgOmc7FsNgbqFPpvK7pwH7TkBOoM0yK71zgdOmMOh4+tjPEgZHmJ6kYWHt+DRZWGjiST3ziE4usYTHGYCFIW9aIMeMU+KkvAyPni8xNaGwhwNvrP/mmLdcayjbAOnp9bQAjT3wN7hxTHxOSretkb0KQgWLSiCwjI3oNHCermHTThIqOC/SUDvgARB0MGoJBw+CxnFDrHnlw6jkJgr6u7xi89H1IXrJMWAg4+uT9nOc8p7wpsqXI9hF7v9MuQyJ1Ume6wLlj7zgIedW+mHqPC+Qfu1zzyDnnFF9biOoJe9otx6H4B/qWyZR98vqVibwJjIkFe2FSH65DI7Li3HIW2TRjCFvGBtu2ZSzBN+Nm7klbTQr9dqzbmW0jXx9jWmjIz5RZSSd7cUHeSXJsWFm43a+VaurWhbE2AzNQ6aBW4wSzfzNrjp4BZy5FT0cInBsQOVtZXWFc5XFNxzbDy4qFVT2rkvLreAaMxTg3yvDKy89ccarwXgjIweycDPAPcGSkMislGwZMPk6mFUjOcvIuBJx8e1u9Jma8M/AsFZwtK07a1GsrDknaKSq2UK6B1RsfLvkTBs4e9HVgLpArvdJWcRpBe9czfvnohZVeA5rBwqRCfvdmH6I4fQLlp351HW2zMaky8FjtNtly3bNyb50/kJZzcWXh5Qj0wTn9prv1Nc8V1Ce6sSYowz2OVodMWGyz4WCrO90wQSQfZWdlZFrAKzJTrj7wwQ9+sAyO0jK5NkGxxSoOcO51zTGYNHdc6b/24ZzTO4GN8MFhnD0OO/Q5zpef/Oqu7aMH7qXP0vM8MloIwge8pfCBpO1AHP6FyC55Pa9ft8gH6CqOCcnbv2c+IAf9l5z9yUFkvBRoT1wtmng+20MW5Iyb67AQOdcy1t88m4PHXnruUkHv/KoJWZgQkUP96whLhT9Fwtl3J+OCVViTdrpBvt6GsDuwEB0YBW+w8m96vvFhK7wtJBtlaLulvhVoWLsw/NLFItDvCM4zMOcVIqdFsC+LseIIxJg6N/h4XW5VZzEO7zigw+HMkcUpnPFXD6tOuImb/Xq9bR+1TlobT8bXwDcUcGFYOf5m7ZwPiFOG51KN12LBWTWx4cQxeAnSyDGv8BlAkwl6QScyGYjTNUlENvVRu+OOW5xz5+KccvzojbqQvaM6LhcDTqcie3HBZMIK/etf//ru3e9+d9l3ywn2j4Uc9ax0xhlMH0lYLkh9yIZ+0A16of7Shq5v5I5LzYdO46vPxXFMcE/uTXxI0CH2C9c99tijOKYmLfi7hmPqNxRGyYkucKD93KWV37wNnGWwWcY3TimnVx0iY5gFfWhYPlgrnV7QEeoAjCcjxLjGkc25a4E0RjcDxVDAGxccwlnIeQYDeThlAs7OR9V7COCQlSbGKo46OA7FqwYOkWvaXYiMOVdZtTEJUQfpVh6CyHoS9UlbpgwQxyG8lUvOSZcWh9gxeVxbDlAP9Ul9BSs0Jib2KXJqo2fqnolfHOWkud/RILpckDpB6hpddm1IhJvjqIAjvrOur5ErfnHScz4r6Ld3ZIyniTF7rB6zDrqbsU0c5+gz0Kfoe0PDUrHWOr06RB1qxBDU6XW+GIf+fUOg5jWqc/c553p/wBjSuPXLjvz7HIdC5BoZJkB95DQlLuAex4rT5BmTlnPKFgI8aj3IsQ51/ZYTou8QJ9/ryo9+9KPlF2Os9n784x8vq8C1HLRT7q3ltxygLqPaOnWfBYRfAm51e6zONsxCW+Eg6PeJpy71BEMYEv3y8QLynQV+C0G4Rt4grT5vaFgq1lqndz7oG1bxGF4Y2ij0O3L4zMWpTs+9Q/IHPOIYjsLq6jNthEsd8BfoShylpGfVIfdOEmnPGikzx3ANpPfDcoP6ahMTkry6tRpvb7oPD636+kiVc1K3Ye4lE8e043LBqPbOeV9PZgXhXHMP11F8k2do1Dz6XEfxHgqzLMOFIjoi9GXe0LAULEund65OogPVAyLMilHAh5OVVYQ+DNq1EzZriMwToDZcQyJy6/Orj65bRazThDjBrk9K9ikrZeQ8yPnq0qM7k+I4BFIvH3D6CTjt87CHPax7wQteUP5R0YeNgl9YsKc59XfUZo4wtP6NE3WbB+K13vSvTxOjuDhPGszVHvU9wZBthwcdcsSj5pbzoUGuNWpOkfvagFq2kHg/vaFhqVg+I+QI1JvhQefp78sa0qjCqPKlJeR8LsyKUcjr/xp4ZbBbXR0mjTiufUTGruNvNTH7QpPuHH96A/KNG+HRR92urkfGo/InrZ++tkI9Imsfr/n9Tn9K8aEPfaj8MYVfa/B3xP422i97+PUQe7Dd416yy57sWo5rO+o2Tt+qA9R5hkKfQ82vj36+WUPsQ933Z0XGQc1nFrgtBuQsBNHvhoZxYlk7vXN1mhgE14aeCY/iJy0h5zjH4ZlFkGNkiWPtoNV1mQWETz+AlR0ObuoSHYr8a6M8Lnh2np94QtDnGl4JQX3P2ozUEfyahr8Lf8xjHlN+U/tVr3pV+bvu1772tSX4C2ZfqafdIpNMcPuyXJuRuvRD9LJOGwo1h/Co40HdNrXu51rCEAgnoFN5ixBEz4YCbnWb17IaUm5LAc61jGt9aGgYF/6Phi1DzNXx6/S1wTjUA0Ewi8YgRgrPWZJrn8vqZMfoup5BOPc6dy0rvuNE5CVEhglzYa58/bquzYg8/Dyb3372k1F+R3ifffYp/7ol+CkpP89Ub00J6gF0uSB1zJF8oqswC+2PQ80jOlpz7PPs55kl1LxrDMk3MlR+3f6O9Yr02oTId0i5Nix/zNSooPPWig/p0IL4QjCNjpOBNWVNqswYucinj/mWOyrfuDjXzyGXmutSysi94+RZhz7qdHWo49knWiPt0r+vvhecLxT1/ZAy6rAYrO6+xfCcFMKz5tTXrT5G1W1adVJOv13EpYdD/xoshF/9rBpJn+v6mlBzER9ljxeC+fLIsxdTxurgeYt9Jt592w7j5hgs9Lk1vz6WUu81Ie250LF4MZiv/qwOfTlMSi4Naw8Gd3qjhJS7NrJxdjNrdb7QjrbUDjMX8ApvK385T9q4Maoe/bTF1nVcvJXfd0bEc75QfuHkGF1IWv3c+aBfv9w/6jnySktdcp44fUw8z62vh6tzSL46jxDkvJ9eY3XXoL5/viH31fWsuYd/jkOh1inHDPQ1R8gHR3Ue6OebJFJW7FTK7ctZCOr4QpD7UuaoZy8U7q2fpR593osJNUZdS5kC9PPMJ4yC9LTF6vKtCX0dDGrO88Wo/NIWy8+90f2cZ1vPJOC55OFbh/Dtc19sXQJljIN/ePS5NaxsDO70RsEFndfHJxRT3DEd2HnSZgn1x0+pxywj/MhRcB4nYVZkG27hF6Pud1ql1R+bDRUC8XCJjuIafUje1EOAOp38hwp4COEnDXch/BrmD/KqZZb29few5MyekXP0I21gMpW2mHZIW6f9w9956iN9lkM4py4Q7mQ79Cv/yLoPaf06zDLIkf3NdiLyTr1qmzFUXWp9xqG2abjX+tGwMjEzTm/ilBQop/MMBpB8zocImd2GRzpSPZAlzyyHIPWooQ6j7plmwCuDgPMMWLkOuT5UyEAFNaekRY41av55Dsg7RAifOkD/vGHx0MZsQxzIyDXtL05ncn3aIRxzxIcNE3CyCCE+Sn9mLUC9ypk6CpHvkKj7k3g4r03AOfYYyLRvB2cFuNJdsGAizIIeNAyLQZ3eWvkST8fJeZ3HNedDBHDsG6sMWI6uxwDU985S6EN9amNV5+nfO60A4SVII1fxyFtanWdaYS7084RzuMYAGzByDaQ7n3aoUfPGi+MQede63rB6jJJvZEim0QHHUYNv2mGaIRDHi3464hY9qOs1yyH1qJH0HIdCzbGPpJO7MMuIfQhG1amvW9NELWfH2s5GtkNxa5gNDOr09pHOEsUVz+DAGNczzGkDB1xqSPOap2+spM8qcOvz6xuBWeDf14UMxtqAIRtSFyD8atnhF85xGiF1gDo/5Nq0A36CeI1+vj7fhvmD7AS6mhXIBJBeD8pDoOYT/cXJqlhWyaIna0PAOTrrqE7Sc55rQ6DmkXhkvraALmQcjDzDX53q86FQ8wjX6DLMAseG4XC7Xzf+1FtfR7/55puLIvq3JfGbbrqp/OvSV7/61fJTRIceemjJl0Ehe31H/TTRtKDc2ogatH72s591RxxxRLfbbrt197nPfVYNcLOKq6++uvvwhz9cfvf07ne/e7fBBhuUdHXSHhnghkbUEhd/N/vP//zP3TOf+cxu++23L9d+9atfDSbn6EHiAk7RV/p8wQUXdKeffnr36Ec/utt4441XyVSe6FB0O8+aJpRvQMCbzv7whz8sfwKx++67dzvssEPhvNFGG3Xrrbde4bnuuuuuctwa5gZZ3nLLLWUPr+ONN95Y/jL5xBNP7DbffPNu5513Lkf5hDve8Y6l/cWjD9OE9hSUDzho52uvvbZ7+9vf3j3lKU8pfU56+uQsgu268sory5+Y+Le+rbba6jZ88U8/G0LONcKLfTjrrLPKuLH11luXicas9y/yPfvss7uXvOQlv0n5b4S3ug1dBxwSrr/++u7444/vfvKTn3SHHHJIsWv+xpxdW2eddYourL/++r+5s2ElYHCn9+c//3lxeOP0fupTnyqOsIGBQnJu5Pe/+84NJkM4OzoyJwE35eODFyfyiiuu6LbYYotVhjZhFkHejJbfPNXZMxNmcDMo4D7kIAzaHY/InFO2xx57FCcBL20QvtNE+JGPOC6OuOLjnLPjH8IY3L333rvU5Ze//GWpC73J/XlG2mCaCF990CBwzTXXlPTHPvaxxfH127gGBfIW5GlO75qhTbW/9nZk58j2qKOO6i699NJy3QSCPPMPctpfGFKfcWED6IW4ybyJ24477lj4wiy3PdmF893udreiu/qaRRIOPHmLA52fNsgVyBhwNSFiGzhiuMrDfgxhD+YLOkyebAQ5GkPoRcbpjM2p71AgRwFX9muXXXYpkwuyxpnTm7GkOb0rCzPh9GallxH44he/WFYgzcp0/tCjnGCQSHza0Llxd8QBF4761772tcLZCvXQnX1NuOGGG7ovfelL3T3vec+yoqfDq0tdt6ERLmQpbpb+zne+s3v+859fVkTohfQhZB35RFY5h/Cly1ZNre496EEPKk6D9PCOQ580z5o2wpsOi5sIXXbZZeWPH+gFp9dbgKzwNqd3fiDP2umlCybGRx99dJErh8wEOTaMHkQXhpBtyqSDOIUPzv7y+cEPfnDhC9JnFcYSiw/eFPrXPv/QV/ONng8l58i1Lv+iiy4qb7G8Jcw/CsIQ9mC+OOmkk7pLLrmkvAEg08g4upPJkzoOVY9a1hYeTIRwPeigg4pdY9OMe2wa+9uc3pWFQZ1eilg7vcKRRx5ZZmRPeMITSkeSN4YixmJoRGS46VQf//jHixNpy8Csw6rT4Ycf3h1wwAHl3628wibX2lCAujEIQ6Fu9/PPP797wxve0L3uda8rK9SzogdB9CG86MSZZ57ZffOb3+we9ahHdZtsssltOKsbpH4DdMFVZaaPnXzyyYXzPe5xj1XbGzIwNKd3fiBTspzL6d1vv/1K2G677Vb1NTYQxOMID4noha0C//RP/9Q98YlP7LbZZptVfGcVJpKcsY985CPl1fuWW265yimzwus6qMOQ9YhdY1tNNM8555zyr4LeEmYCnDaYRRxzzDHdj3/84+4FL3jBbbjWE6bId4h6pGzcwErvD37wgzLucXrZNau82d7QnN6Vh+Gt7AjEMEWBZxl1J1+bwEjp8DV3ac6HMFZ99DkYwMIPZoHjXMAtA24cGUbYapR0dajThwJ+fS7h3OdX60nD3OjrZeTWl199XrfBEOhzDpI+1/VZAhkK+lf0OOnOI+Mh5RyO4YRjOImH+6wDRyu64dqvDwypM7Wc8ai5JL1h5WI4C/BrRCHroNPUSskx66cNjbrj6Oz1+dqCyDuo+ZM3uQ+J2iF3jDENZkneuPT5OCffXEtIPTJISBsC4VMPtLhZzXWeNKj1pMZc6SsJ/T4k1GniQn+VPHli34ZEzSt1COq6zDIi5+xLDm91SV8Tar2eNubqU+GY+CyHQLy/aAJD1wNwqM/Jun+9ln/DysKw1rahoWFQZCBoaGhoaGhY7hjU6c3sKyGz8YaGhmHQ+uDC0CYNDQ0NDWsPBnN6Rw0WbbBtaJg+muPW0NDQ0LASMDPbG7LCFMe3DcQNDdND+lvrhw0NDQ0NyxWDOb0ZVGGueENDwzCYTz9sDnFDQ8PajGbDVh4GXek1sDaHt6FhttD64dLRZNjQ0NAwe5gJp7cODQ0Nw6D1wYaGhoaG5YyZ2N5Qow28DQ0NDQ0NDQ0N48ZYnN7FOKr20tT7aRbj6PqR6fwY9kIw37IWU6+Fov/8nM+n7DrPmvKOE/2y5ip7mpwmhWnUof6x9LpfjCrbNelCnW9U3sUg/Wmcz1xOWN0P20dmo9plrnuWgkk8c6nAiYzy5zZ1/ft8I6caybO6PjBN9Pn0238ofsrtl500f3ayOj1d27DQesylVwmuj8rTsDIwtpXeKFQ/vib0jdt8FDLP17Hzd699JE//2qj0xPvXpmE46vIg5/30UQi/NeUbF+pyatnUPBKgjg+JURzCrc+xH5+0DqT8BOj/a1sNfaPOC/ItBnlW4pD+NK4ylgsiC3JYnSzkiyxzj3P3OOZajotBnuuYeDAqbZpI+Zze8EhaXwZBric/yNNPmzZG8VEHx5wPhZpLzmvkvC/rWQOe/TqEc67VeRYL9/f77dBt2DAMluT01p2OAmXArJV2TZBnoYqXchjW/G0qhI+jPHiES43//b//d7kO8v/qV78q9yRvnpe/WVwov/nCczk44QzOw03ZqUvyJB/Uqymj6rlU1GXh4P/WQVni5AaRkyDfL3/5y5KetCFBNpFfDbzoQS079a3jQq0D/WeMA56/7rrrlr9PBWXiq0y6kLKTLi49jrHrQnjK17B4RNZBzpPG3qTPzhfyJowD2hnCK8/t8x4C5HP729+++9nPflb6V3QzAXDDlQ1xrPMAPU9dUtdpo88bZ+2un6bv1ZynDeXiEm74Oif/G2+8sVtnnXVW2ZRZB+50JvWIbsQOCg0N48KSnF6dv1ZO57UDuTplra9RdmG+0NEz8KQscMxzYgxcx08AeRiG2ljFOMjvep49aSgr/GNIIdxqPiCeeyDX67RxIuWmnEwwtDmOtdyE6AEDBuIGvjiXQwAHXB0BfzrKMU96uNdQ97pNJgXl3nzzzUVGOSdf5+EQ7lDLOvnIO3Ku8zYsHOQn0JP0qVoXyFj6UHLW9srX/n39SDxhCOBGRnje8Y53LJyc01WI/uIXJy31kZ46DY1wcmQrHAFHduMXv/jFqnoOAeXiFLlGzmzbne50p8IvY/GsA0d8g0ycpEcfhtLnhuWHJVmX2vCmEzIIMRbzQYzGQoyHZysD6g4RY+/6rbfeWma8tVGA8LQS4TqDVpctnuelDpPscHk2Htdff30J6pa6CDi5fsstt5R6pe6u4SjkOeOGZ0cmo2RNvniFQ4J7GN1ankNA+akD4EJHBdx//vOfF57hXSP1yL1Qx8eB8In8GHzOQPRVW+NpQJMuH6TP0YebbrqpxJPWsDSM0oUgfWAoOde8cKC7dJiOxO7W+j5tKFeonVmgu7kW5yz9DnINajszJCJL/ZP95ZiFm/pBOA8BZeMikClZ42eyIS4N/7UB6kLGAu6RsToMKeOG5YclOb2UkUHgQF522WXdxRdfXNIprGsJa8JClbrOn06fsq666qruhBNO6I444oju05/+dAk/+MEPuhtuuKF0oCuvvLL7xje+0X3mM5/pPvWpT5XjaaedVpyHYKF8Fgvl6ODnnHNO95WvfKVwxfvII4/sLrzwwnKNbL///e93X/rSlwpfefC/7rrrVjmVQAaTQP/5jgyrYBC46KKLCifOevLknu985zvdWWedVeowSyA3vMkZ9y984QtFZzgPcRhSh6Bft3HBc7MyDvpTBlbtf80113Q/+tGPihzDQfqll17aHXvssd1Xv/rV7nOf+1z37W9/u7vkkkvGzm+lgqzZCzbtxz/+8W9S1+yQjdKdcUP5dPh73/te0d3oMDtCh4cEbmSUCRpZ0GkBnJ933nndqaeeWmyYPO6JTGdJf2PnOGKnnHJKd+aZZxa+9IJD5tqQfCPryC7nONLZM844o7viiivKtVlFOJPpcccdV+xa7HCtMw0N48KSnF4dn0LqYF//+te7448/vhjjGARIh1wTPGe+yu35cQ4C93IGTjrppO5d73pX9/a3v7376Ec/2v3TP/1T94EPfKAYAI7tMccc073zne/s3vOe93Qf/OAHu3//93/vPvShD3WXX375qvId+wZlElAOp8aA9Z//+Z/dxz72scIF56997Wvd1Vdf3f3kJz/p3vGOd5Q6ve997+ve9ra3dW95y1u6k08+uTjyEOMwCUTOuCaQibLPPvvs4jj+1V/91Sr5GSCuvfba7oILLuje9KY3dZ///OeL4Z2kHFcH5apDymdMTYw+8YlPdG9961u79773vUWmZGwwzkRCgNQ3mEQ96oGfDuPA8JugaWcyPOqoo8pqnrbwhoKTSydMkgT6bjI0axOMtRnkb1JhQlrrA0xCD+YLesA5eP/73190lz1jE+gB3Yah+Ck39oiucn6lmSB7I8FOsHcmauwCXZe/diL1h36/mzaUzRH76U9/2v3whz/sDj/88O6b3/xmkb26RA+GRnhk4sw2nH/++WUxh4zZ6FmG8cIYiCcbZjLE9rGD9KD2JRoaxoEla5NX2wZkjiUHjVGgrLA6o6Wz1oZD3oUYuRjGIM4Ax1unMSDo9K9+9avLnskvf/nLZWXBILHPPvt0//Zv/1ac4j/6oz/qPvvZz5ZZPIcBh1GdbBJGTjmccJOGQw45pPvkJz9ZBoTdd9+9rCyYSDAGHJyXvOQlZVD7+7//++7Od75zGejUJxOPyHxSSBnkY/LAaXzlK1/ZvfGNb+zucIc7lDyuWW00oXjiE5/YHX300aVNZgHRF8bU6t1//Md/dM9+9rOL3tIBg7NJB2deu0QHcsz9C9HR+cAzDa7KzzmOHAJt/A//8A9Fjsp1jYNgAqcOe+2116rJ0B577FH0iB43jAd5u+JNkMGZ/FeHua5LX9O9C4E+RW/pzctf/vJiF17xilcUXYgdm7Q9mAvqiRcbgUO2XXAUjRN/+Zd/WexcVvTSn9yXPqbPJX3c/W2+wANHfF/72teWxRTQT+2ZzWJA7MNQwFMgZw46W/Fnf/Znxel1PjS/NeH0008vYzE9FjcxAk48Wet39KmhYVxYUo+gjAYFK3v77rtvUVBGqjZa84G8CzVuo+7BY/PNN+/233//bscddyxfsO6yyy7FQNl+wfhutNFGxenlOG6yySbdXe961zJIcIyzygeZaeZ8ofzmCzK7xz3u0R1wwAHdBhtsUMJ2221XyrNqg9MjH/nI7u53v3u36aabdltttVWpm9fzBhKQd9LGrTbwjNG97nWv7klPelL3mMc8ZtXWELIi34MOOqg4kuq13nrrFflHjkMh7Wf17txzz+223nrrbtddd+222GKLogO77bZbWV3nUIziKm0SdcCLPLUzfXNOXvTgvve9b/fwhz+8cMvbDfri1x7I/wEPeEC38cYbl7wGCXniPDcsHvTZJNkATH/Jm+y1jUAP2IeFYhw65H4LDd/97nfLRIddYMcc2QaTIStnQzk7qR/HUJy8cKGb+tlTn/rUYp/XX3/9oqsCvY+9BfcMDdw33HDDYt/YOeMFXuph3BNqzkMg8gUyxpetePzjH9/d8573LLqb9phVbLnllt2DH/zg7kUvelEZu7OIE9nW405DwziwJG2yD5KB5TjstNNOv0mdDtLZ00GAU/igBz2oO/TQQ8vqo0HL4MA5vMtd7lKuv+AFLygrZDb7Z1+kdANHVixjTATxSRo2k4WHPvSh3Z577llm6/Zv2puHH6eR8XrmM5/ZbbvttmWws/Jrpc+AZzDGT5gU6udH5gzT3e52t+Lc4scoGQTki+FVJ44lZ2HIgSEIdzpBZxlbDqNBF2c6bJKRlSmca7lOyvgqI/IJR0eTB3rKucU1fMjepGfvvfcuTg5H3QofR949JkwNi4fJh1V2doFN23nnnUt7kDukrYYciPU124foxWabbVb6GCdzm222KfrNTgwN8ok+g0kZG7zffvt122+/fel36V85Jr9zwXn9jGkCf5NJCyT3vve9i0MGsXMwJD+oy8aJTNnc+9znPmWCkYnHLIP+snMHHnhgGc/Sr2LvhpRvw/LEkiz3hz/84eIoWBmxtcFgYUXVaysKO60Ol3I4r5wwA799WFahbRNgbB/4wAcWp8CqqUHixBNPLK8vvbo87LDDihNnZRg8rzbak6yH1UZlc8xtZ/BRinI5wQyua47kan+h7RsG4Mc97nGlvpNGXffE8SNLgy6HsTZMJg4mEBwyRtc199V5hgSn1mppVqDxIk+88RQY3Dg3kPik6uD50bfICh8DbSZjkT2uBgoOjjpw4DlA3lSkbgtB6pTnB5Oq66yDPE3mTSKs+rNlbJyJJvkGc8mnL8f63D3jkKtJGeeWI0k3PJP+cBpwrHkOhb5Oi5tk0ufYBXkin9Qh+etrQ4ETaTJc90G8cBSGRMrHKYH8yBZndpmtGFqGa4Ixl3yNJ5GrEFk3NIwbS3J67XPysZVX7X5hwEBhJdJ2gYUobTrtYqCDpHML9mTmwwP73jjAT3jCE7qDDz64DBb2wVrFsZ/Xrwt4LWhvKueSE5RnBgxJ0scNfA1Q9sFasfvgBz9Y5MgJ55xzHDnD9mrao2UfrcHOyq/X3rWhmBTqZydet5U4uWoDsoIcYdL85oPoRvQRP5xTD+nODXJz1Td5J4HICA/liGdFqU4T8LSSRw+8DfBm42lPe1pZXTfpNJmbL/LcPlJX1xJfKfArJCbCnAd90a9m2DJgX71V4LTD6uSSPDX654uFcgW6SkeElMdWsFXC0O0Wnql3+lt4xUbkPHVIfunR/SEQriYWOIUL3uE+JL8gPHHEy9E5bhB5zioiP9xTj4Rca2gYJ5bk9H7kIx/pXv/615f9OFYevXL3+oozRoknaXw9N892jJNgNdRHSlZnfJ1vb6lXwQYJjoLV6Xe/+93lNdAb3vCG7qUvfWmZaeJbOxgwaaPm2VaW8PFxhz2afr3hUY96VFnlc92E4vnPf34ZfDk3r3vd68q2AjPkGN9JojZAMaTaNemJj0Lum6QM5wM8svplNYxD4ytyabhxFryt8DrTik72xwbqOElZ49CXofKEyJDTEH308aO3At6uWO31epDu0GP60rB4mAT/6Z/+afc3f/M33ate9aqyr9p3AfZ2mmRoj4QhoFz6yT74hsEkn17QD+fsGvubvjoU9B8cvHlwJLuMB2w1vtFxodZxkLY62zJpKFsd2IhwwgUvkFafTxvKJzM8+/YJr9i7ofgtBOoBuJpY4h49l7Y21KFh7cGStMm2AauRXrVaKbW1IKuPUWTxcSPPBnFlMFBe81rlBaulDK40e2Q5OQYIK8CcBMGrS7+H67rXw57VNx7AwMSIjBPK8kWz1Wey86sNeOLsaOXcdgZlc3TJWV4rT67hj1uM8iRBFv22JC/BhCIrORA+aZv+fdNGOJJ3PlwzKfKluw/bfDXsN0+trvvAJkh9Jo3IKQOYuDQyBWn4x5HwJsUkyKquc6/h1cUKcNvTuzSQtYkEu8aBNJG3vUg87TIkcDBp8+Grt2qCrU+2cdHlvI4fylFIX+e8AL0lU3rKjuGVSaW0LFa4L/cmLn0oeeMWJxzXOGCpA35DyRgiIwHP2F/n5B2Os45wJGd6HTsnqBN5R0caGsaBJfVas3crY4ys16v3v//9p74CCTqMOKPv9aQtF15HWjW1ZcA2B19jc3Ss9nJ0rZS55iMgv9Fqz16cyDi4tdGYRJ2UZWUOb8cvfvGL5WeqcPLTZf5Uw4Cm03NwbG/wc2CClWErO+E4CaPQf2YtD9cYVyun2t+gkOs5mgC5Lt9QwDPOI14cGh8IWrkjbz8J5qft6LG3FVZ73SPU9Z0k6Jby6EPKzcBFrgYDfc016fjbs8dRf/Ob31x+hs9vc+6www7lo5uGxYPs4+SQuQ9NfQ+QvbPRjaGgbDr8jGc8o5zb9uT3sNkzvzJgpZq+TEt3+4h8hOiwOBsWG2qM0M/yDUWAszzhrj8IQyBcEtix2DL1CTfxIaF8XGvZ4WXyTk84kbOMyI9ca52gL5BJU3SioWGpWLInR2kNDlZGrKBR0BqTMAo6gOf2n83JsgLC+dbpGSkd3yBgEBPPwMBpkF4bs74hq58/qU5nsuBrW44MOer0eBlkcZRuBdJKkzRBHpzDibGbNpSNhy/c/SYvxzfpaR+v3K1gM2azAg6Nr8ef9axnlVVRPMmWY+OXEuJcBnUc+ufjQL88gR6So5U7q43eAnDetbW3KrYR6W8mat5o0CP71qf9KyrLDbX+OvqlDNsb+tfqNps29DttbesF/QC/7mKvv4lP3wZPE5GRUKPWaR/vmpz5EFd/zHWIfGcF+LC1Vvv1sdrWDq0HtcwgfLQ/nWV7vR2cdeBvXPN9grfH4lDXL3VsaFgqbvdrxVpSrzUQU0jGIJ1OqI1DX2EZv3xtbi+l17OCVVgfdDHmPj6bS9FTRjpD4o5B7jVjFA8f8cwipdU884oohjhGWppr/VmzNHty/eKCX1vAeyEI78SVVw9Y0pKn5o1f8kuv67Am4GuLh5+I4TxxrNcEZUG4BuovmFBkJSd5cMt56rBY2O5h7/hf//VfFydksejXIzJ0JPdwhcT79ci11cEWFG8O/IOTbTYmY/WzIM8C6drUNfFaroH8ZEwHc2/S9COOkGvuF+YD9yvT0T+/2ebBkeY4cUjoRp5rIua4prqv7SCLyBfUN3WWLh75pi0D6drCJMQ+cfZM8ObJPmwTFYGDulSEo/KUS3/xEXAM18XCR5H/+I//WCa0cZzm8zx5BPqLF73OuS0P9Anorev0irzwjTwXw92zfRDsD2b8LKVFmPo5ykp8vs+OjOUXPENa7N1CedbPE7dFzUfKdMKiQWz/Qp4ZeF746Kcmw3iG97jgDSrez3ve8wrf1ClHWAx/92j/tJNAt8k5tnEx8AcdPkj1VtTiErtm8SuLYZ5bb2lrWP5YnCZViLFNpxOPgkZ5xw0GNM/WSZxDfZ5OWBvd5JNWd6TkVxfpgevudWRIxgnlMdQxSMqJ0QukCTGw4S2Oc/iP06jNB8qLvOKYRVYC4AzyJgyNWgfwEccX93Cs6wDq6Fx9ob42DtTlp50j17oseaRFzvIJ9IHxVheO1izIeW1G2iMB0vZkK15fGwI4pH/RCW8n2KfoKtS6M01EL4P0OfKyYppzessBTr+DyN6xDkNAueSJD77OI+M46UNxA+XX+ohbxij86IT0ui1mFTimPkDeHF71YdvIvKFhXFiS5c4gnY7V72RR4nEjncDzY5zEBRyc1wZJPOmgU9XcXKvT1CF1y3ldr3EgRnSU4cQj5bleO+IgLXXO+bj5Qc1hFM+gliXIm7qRrbC6+yeN1IPMcHGeOuVaeIL60Ica8iXvuBE+NQdpdDB6GZ3wEZs0+VIfEKcnQ8p5uSBtLQSJpx2GhDbu2wSgF7PADQdOC91kB+gmboLrAjnKI+Q+oYbnyDcEcMUNp9ha5+l7o/hOE8oOD5zYChyTljZwbZYROeIpiMeuxf4JQ+lBw/LDkpxeitlH3cnS+cYNz53rqLy6zMRd6+evr0F9X+qms9Xp40QMlDLSqZVV86nPayS9DuNGnhkeQb+slC9P6lHnyfWhgUPdruGVkDrW+eo0YRLIcyO/Po/6elZ7k3eUvBuWjrSBY+J1WwwNPGpuNeZKnwaik5xy8hLPmCCOd1+GcXJwzv1DIzxxST0ST/pQMu6jlpt4+I6S9awhMswkznnqk2vqIzQ0jANL0qQYgFGYdIfL81NGHU9nqZFrMIp33bFc6+fp558klJXyUpdR5df5poGaS13utHmMCziP0oXUp07vn08C5JtQc6jLzQp6nbdG/3wpGOez1iaMknvOR+lLH6PaZRqYD7dpgSMLcV76vCLPBBglt/5904JyybPm41wIhmjjILKq5RfkvM93FhEZ4om3czpTY1QdGxoWi7H0iFop+69Y16Ss4zIcKUfnicGFmluNfno6XR/TMBx1GTUH8bnKlj6K7ySgnITVYa56DI0+F+d0ZFR6H9OoR8pwTEi/cKz7iFUz5/LU8l4MUm4f/TJXIiKbpci4lmPi45QrXnUbJu44V9tOGsrFK3XNeTjVchCgjtf3zwLw4YSlDnHI+rKfNpQtkJNjzWeUXGcV4cyuJZ76RA/Whno0rD1Y/Ig5JlDwhIaGhoblgmbXGhoaGmYLgzu9QZvJNTTMBpqjNhk0J7ihoaFhWAzm9NYDQHuF0dAwW2jO2eLQl1vsXJNnQ0NDw/CYmZXehoaG6aJNMieL5ug2NDQ0zBZmwultqyENDbOH1icXhlHyavJraGhomB0M7vTmK836FxcaGhoaGhoaGhoaxolBnd6sjIxaIWloaJguWj9saGhoaFjOGMzpbR+vNTQ0rAS0yURDQ0PDbOB2v3Y6p+51+oHvm2++ufy39s9//vPupptu6m688cbuuuuu64466qhur7326h7+8IeXLQ/yGjBCc8jBoxYVHn5Q+/rrr++OPPLIbpdddun233//VddmFWT8uc99rttnn326O9/5zt0GG2xQ0vND4DCkrJUtpO3FL7vssu5f//Vfu9e85jXddtttN7h8cRrFIek33HBDd9ZZZ3XHHHNM97CHPaxbf/31/6/8zlNXsp82UnZ4nX766d2Pf/zjbo899ui23377buONN+423HDDbt111y3/AnenO93p//rjmYbbgjzZhJ/97GfdL37xi+6WW24pdu7qq6/ujj322O6ud71rke/WW2+9Kn/0AIaWba2TV111Vfe2t72te9SjHtVtueWW5foQejpf/OpXv+ouv/zy7rOf/Wz3jGc8o9t8881XyTW2TVDHIeRclw+OF1xwQXfRRRd1e++9d+lvke8Q/OaLE044oTvvvPO6pz71qatkKaRu9F89hq4DPnDNNdd0Z599dumP97nPfbqNNtqo2GNhnXXWKVzFG1YOBnV6/+u//qs4veJxer/85S93W221VbfvvvsWx0cnigMkDG14I650dNw5NxzI3XfffdW1WYUJxre+9a3uHve4R7fNNtsUpwaypzqOJgxVD21++9vfvkyKgNPw0Y9+tHve855XHIZZMKjRyRrRVTLmQP7gBz8ohjbGVcg9uT+DxBBIOyvfQEbOBx54YLfDDjsUhzdOr7bg9OI8y7o9C9CebMIvf/nL4vTSBXI9/vjjixxN2jbbbLOSV/vPijzxiH4KJvOf/vSnuwc+8IHdpptuuirPrILcOepf+9rXusc85jGFs3qkr0bXhwQOZOhI1ibzP/nJT8pEiDNWX5tVsGkc9UMPPXQV1+iFozE9dmIImYdL7Cqfgl6wwQcffHC33nrrFbvG0b3jHe9Y8jSnd2VhZpxeg4PjJz7xiTLrZQg4PehZaXJ0H0Sxpwll6iA6Uy2yW2+9tTv66KO7nXfeubvnPe9ZrofnLIKcrTrttttu3bbbbls6Ps6gXoK6JgwB8tP2uFldvOKKK8oKjsEsq06uDzE4RCZxWmt5OXfkMFxyySXdtdde293vfvcrBjeypfO5H/KMIYBrBq1zzjmnDA4HHXRQd7e73a04Dd4CcHblaSu984O+VDu94pxezhhbl5Wm2Ih6IjGEHqTs8NHW2tlq9Re/+MXusMMOKxNN3JJnFoGfVb3Pf/7z3ZOe9KRuiy22KHxjr8WHlHNQ958LL7ywOJB77rln6W+xCUPyWxNOOeWU4qz/zu/8zqqxTsBZ3aTFLg9RD2Ur1/iAj/GOXWO/HvCABxSnV9AHY9ua07uyMBNOr8EhK70Gh3vd615lJhkjQHnTsdKhhkBEFcOlY+H9pS99qayc2t7g2gAinTc4ZLY3eKW20047FcdmFvnilIGK0/v2t7+9e8lLXrLq1fDQSDsL4nW7c3KsnHJ86XFWcUCdIOezAJxOPPHE7tRTTy0Or9VIemFwMDBkpZczNGT/WxvQd3qz0vu9732vrDCZHHuTlfaPDsEs6ES42KJjpfe5z31ueYs16yBvTuThhx9e3gjR4ThACeQ7S/3ORPPcc88tiyXsmn4267DAY7vAC1/4wv/LFsyS/ga2vJx88sllAcL4nJVe9s2iCh+jOb0rCzPj9Boc4vRabXr84x+/yumF0ByyY/U5cHo5kVanrUzf9773nXmnwGqIgeGAAw4oDg6HbBTUdShZ0w9ydMQje3pf/epXl8FsFnRhdbCy8KMf/agMwlbKaqd3lhA5k+dxxx1XHDPy9QYgrwDrPb2OsyrzWUHt9Fot5TzSh+9///vlLcWuu+5a5Dsr0PYCPUifUweO+sc+9rHu5S9/eZkcz3q7k7ctRe973/u6l73sZWVfejjPir2oeYifeeaZZe+/RR58OWGzLmfbD88444zuj/7oj27DtY4PKe9+2Zdeemn37W9/uxw5vZzd2LZsO5PWsHIwuIdWdwwrSXF05uowUeohgFPNSzwDhTAX51nDKKM0pFxHITpAviAuLTxnjW+Nmife4R7dhjrP0AhHwEk8TlAt/4aFI7LlSOY8SHxoXah5iGvzmjPMiq7OBXwtklhIEU+dIPGh5dwHe2DhJHJfGxAZRkfAUZr6zBpqbjjXC2kNKxODOr11pxGikJQ0SCdLfNY6VjqSkPrMMiLnPt9a5jBkXcg0fPAQTIhqXRgSoziMSuvLN05vwtAgZ8AF1+hytjFIy7WGhSEyI0fy7CPyhujFEMAj7czJdaQDVvVr/RiK33yRevTHh5r30HUIxzoukHf626wjnGtErrUeD1WXml/d3tL0w3rcq/M2rBwM6vT2odPUgy4wxDFk0lwfErjUnTv8cl53tFkEfvjWcoXIe1ZQD7h4elXMQGVwGJLvmgxljGm9UhbONf81PWcaIN/wEMfZalkC2bs+C1zXNkRu0VXxWsaOzjMYD4m0Lz6Cds8qZMIsA7/YtHCteacdUs9ZQM1vbUHN2ZE8E+JQzoqMwwnosi0wscnhOStcG6aHmfJ0KCajRTGjnJQ2g8YsGIm6s+CSgSFYGzrR6jiqSy3/aUP5HALH8BTv7yetZT4E+oPrqPPoLeBen8uTMBRqDvgJ4c0R82FNfjllSJ5rM/QjvxHqd2TJkD2LcxAMKVtlp6/XOkoPwlFarbuziHAXatkG6ln30SEwV9n4ujYkt/kissV1lJxhFuQcnY4eZ2I5a/5Ew/QxuCVLx3GkjJRTnLImPXlmAf0O7TzGFma9E61Jnq7NNXBMA8plmPqgFxD5D8VvFCKzGtKEWh/EE2aJP+AU2ab9xQ0e4dywcJBldLdGrTO17KcdIE54nRZ+0dMc1wbUdah598+HRvgI4by2oOYbvYlsZ0nGED7hGe51vGHlYHCnt1bAutPM5UQIoxR1lAL3HdRxIByCmtfagFFy6kNd+vKfJurBFiYh274MnNOX1aGWXb/N++fzwULvGcV5KUj5Ql23+rjUMlY6yLa/ugR1uy9GzvX9NZI+3+fJP4pLP30c6NvjhdZ5dah518j5uOszbu6L4RcOfS7j5DYKa+I5CVkvpE7KHjV+1RPLhpWLQZ3eWvnErSrZLgCrc7pGKe6o89qJ6V9fLGqHrO5cef5SOrtnzJfnQvL24T48F8K1Lq9fbp0+V57FIjzzuqqW/0IwinMd6rRgVHqOq+OQa/LW+cQXwz1I2dCPJywU4RNu5EvW+k7SEhrWjL6ctEkty6SJZxU91+YbYFQa9O3TmgLgJ9T31rqUtPlilB5KSx+G5OnndT7q/vmirtdSsSYeC+WJ16h7oh8LQZ7jmJBzz0t8Usi4B0uV+Sie/TotFOGT46hnqENdj4aVgcFbfDHKHeMcY12nBeL1Vonkq6G8UelDABeDQgbCGs77aeoV/v1r40TKqMuJnHOt7yRJT55ZQZ+PcxOs7Ml2nte8NdSr/qBrSCOp7LoNwhU3YRzw/JTRsGb0ZZXzyHHcsqz11LNzTjeiH87txR4adDL1xzP78muZRHfrfP08Q6HPQzz9zDUYimfkVIcg8qzTZhlz8Yxt7o/t44JnD9V+DcNhrZrmREFzjKEPpHPAdJbageznq41CnT5tpB6Ai8GqdrxcD8+60+c+3KWrT1bIxw3Pj/zmklUG3SBc6zaAur7TRAaqtDvgaFIk1Nzj4Aq4u2awVsdZQLjVskzbSHOtYXqo+2WgHUaFURh1/+qgfWPfogdC4rk2V3nTBJ1cXf1ci+728y1ULpME2aZf4RrgOBRPbcxWQc1BPIs9s6ADC0Gtx9Ooh+eubTJqWDqG8/h+DQodpe6HPkalBbnmWTGiowxpDFfKzPlQ6PPLeV0f6DuOiYM8qe+kEeNfG6YEwFMI6mtQx6eJlOuId82zz6nWm/5xaIySedpiXMizHMf53JWEtM0oGY5LpvQ0EzE60NcJYSjU9Q8XIXWvueYIyT8LwIONCNeas2smF0NyrdsfIjvHvkxnGfjVHGvuoE6p12Ix6t5Zl0vD5DCo01tjsUrYv682TnW8RtLcu7Yrf/hPw+ntI2XH+Neydg2n8BpSzmvSB9xqOaY+s8C9D5xG1QHmqt98EBnUsmhYPBbaDvPNLx9nRxvRBce6/y22/aeFWseEtQWzJld80v7LBZFxX9azrtMNaxcGc3qjyHMZwNV15vrePpKWZ+bcPbWRcD50ZwqXGjWvXDfIJc1xWs6Y59fyUm5CrtVBegbkhKCOTxs1H/XAsV4lgawmuO7oPDLPvUMjfCCc0h71taViVuq7UrCQtpNXe1uFrNtIunPHcerCYhD9Cde+juZ6HSD5oU4fAniMsmWOeM7CFgJl1xOeyK5GZD6rwC8cI9sgdZpUHeqyG1YOBnN6l4pRqxsxQM51FsHgkLyu9z9KGlLplY1TQiBe10+8vg6pQ/gn/7gQDqsrOzKuHUh5Bem5P3mHQi3D1MUxaeGXcwOaOjkH1yLn3D8kcAj/QLzetrFY5NkNC0dkF12ZFLRx7BhdzQdi9DR6MVQbpvy+U14DzwS85evnHYp/jdQlyHnqJl5fnzbIrta1Pp+h+S0UqQvZ1u2/ttWjYbYxE05vX8lHod/Ba7g3H3LJo4Nkkz/DGrhmgJA2DgdhqcA79RIiB/Hwdl7zdQ7SEq/zjwt5piAOddnSyDmcnNfXc0x6whDAM3UBnPHi2KZujjVfcN7nnfxDwT97qU/4An7O1aeegIwLfRk0zI3ISXtMQlfy/EzMlMHW+Ztu+lCnDwHl4hEO+NLXWn/E9cHY7PQz+WYJqYtjQvociNfn0waZpfzILuexcUPymy9wzyROnSLrQB0Wa9dqvYP+ecPKw8z0iIUqY90x6ri//Lzsssu6733ve903vvGN7txzz+1uvvnmVc93vPTSS7sf/OAH3UknndRdeOGFgxnbcL7pppu6s88+uzv66KNLOP/888sg5jpurv/whz/sjjnmmO773/9+99Of/rTUI/dPCrVc6/IYqCuuuKLIkIzJ+rrrriuGFt/rr7++O/HEE7tTTjmlO/nkk0vQDp6RME3gfeuttxYZf/vb3y7hggsuKLpSc5HPQHzGGWd055xzzm341mEIkPk111xTZE624Q/hVLfXYlDXbah6rq2odWMasjN519/YiWuvvbb0RzoyTQ5zoa+DzvHB7+KLLy72gh7T59he14fkPArky/bietxxxxWbwI5wwtLXltLflorIVQiXX/7yl2X8+O53v1t404tZhva/4YYbyrj2ne98p/vxj39cZF7rwmJlXD9jrnjDysNv/dWv8Zv4gsF5NADrXGeddVbpbNttt10xyMEohaV0WbFyNHjrrOmwO+ywQ7frrruuVtn712I8dZ6vf/3rxUDhd+aZZ5bnb7TRRt3tb3/74vh89atfLXwvueSSkk/6BhtsUI5QPxtXYa56MII/+tGPui233LLwXghwvuWWW7pjjz22OLv4XHTRRYWzFZtNN920u/HGG7tPfvKT3emnn16uMQocHmXd4Q53WGWA5wt8OXXayfPveMc7/ubK6lGXQXbf/OY3i6x/8pOfFG4G3g033LA877zzzus+8IEPlGsmFQJDljZNgLlkW4MMTjjhhO7ggw8u7bQQRNe+/OUvl4GA823gPe200wpXz1tnnXVWtbP0z372s8UQ77777qtWGBbClyNy9dVXl2eo8ygZ95/huYFr4QOcBW1PD7S94Jzu7LTTTkWPFqoHfegrwnrrrVfakUzwzpsRxyFXEKcFMifXo446qug1XafHZLDuuuuuUc7aIj8bRu/YNH2OzpHr5ptv3q2//vq3ecZCZBq90Bb0Ql+js/TtLne5y21WxBbaVnV+nD33wAMP7DbZZJPfpM4P0VtHzxT0Cc4uW8fmRoc33njjIlf2LgiPhfAnb5NtE+yDDjqoyHop8DwO46c//emiA/iyYxx1fW4pfSH3WbwQttlmmzI+1W23UHimxR06y05ceeWVRc5XXXVVka3xqUb0yH05zgfGH5zZ4sWgLkucXC1CsM3kbXzWb4xNxjd5YL78+iATesYWb7vttt2d7nSn8lyBTfNc8YaVgyWt9HJ6Pve5z3Wf+tSnui996Uvd1772tWIsGX7KGoUdhbmuU8KENaF/P+eI83jkkUcWR5eCWx3FjaPnOiMmj46rQzDCH/3oR7vLL798FW/IcT51WQw8z7M5+Ryy448/vjjdDNQXv/jFIksGhpP2lre8pTgkrjkefvjhZeXX4DwJbqsDziYN+HEGyJhh5eRaOTcoMLZkTKacXYHs6y0oEBlMkj/HwADw4Q9/uKw8gwGNzD//+c+XiYbypVmtpjuf+cxninzp0Hz0cFyo5SCeYEJhUCBjxvvnP/95mQQcccQRRY/Jtb53HJhmvWcJ9IAD+c53vrPYta985Stllc/bI3Keyx7UOl3Hg1rPa9mKj3re6uBZbBeH1wSfzpp4z1XGNFGXHz5kyka8+93vLo4vB5jesnPky1mVv5bFUPwD8j311FO7d7zjHYU7O8J+sCOcKOfhOhRqWTlyIOkC28xxJGNxY57zcM2x1pccxw3Prcuoz00I9S12TJ8zoWTn2GYLP/QmeReD6FSNofWqYXgsyellaK0EvO51r+ve8573dG9+85tXrQpQLko8KaTz6LjAIeQgMqD7779/ZwH7la98ZffsZz+7rFpxehmBj33sY91DHvKQ7tWvfnW5/tznPrc47gwGQ4az56bDmX1LSznjAvngzOlWxlOf+tTuT/7kT7rXvva13cMf/vDigGWrA2f4BS94Qfea17yme9azntXd/e53L/dxJvEaN7e5ELlY5dXuf/3Xf9295CUvKU65gcwsHV8G7KEPfWj3p3/6p93f/u3fdn/zN3/TvfjFL161ajgX6vYcF/DyJoID+7SnPa17/etf373sZS8r7W4FxwqcOnHKTTwMbBzLGEc6EU6T1Ok8O+WK0wvcTCLo733ve9/uf/2v/1XkTr5WRrSFAU3+SchvpYFjS1esyP7xH/9xcXr+4i/+osieHdEembwNAe2sjfW1f/iHf+g++MEPlhXIrBK6Rg+iR9OGclM2+wYWQjiKFh/YOXbs5S9/effIRz6ye//7318mx+SqbkIcyiHBLniLaXWQjTPGPfGJTyy8OOps79BIf4+sOOkWoowj5MtOeFv1rW99qzjumRwnaJ9J60n9/OhG0rQ755bu0mVj8jOe8YzS/zi+K+XtUsN0saQRnINpTyeF5ax5LZwBeJKKqsN6vnKAkQSvkp/+9Kd3T3jCE0oeTi7HRl6vdziSVke9Btxiiy3Ka8Ydd9yxzDg5R7iD/DV/8Qwq48a97nWv7rGPfWx3n/vcp5wzYjH6+OFp1cEKiT1PjBqD7D6DcC2HhaCu35pQD/R4PfnJT+4OOOCAsjWAXMjO87I9BF+rq//5n//ZvfGNbyyv26wK53VSEO512mLqsjp4dXXXu961e85znlP0A9TFoBVdVT+Ow3vf+97uSU96Urf33nuXAUHdasOrbcbt8JCn8ueCsg1YBoh99923bDnAxWDsNStdqFdxxi2/lYZsRRDYNRM3K1HshvanD9NwFuaCdqYTO++8c/eGN7yh8DPJp0PR2Uno6UJR2zH2wAQN57xitv1g6623LnYh+dxDrmSc8+j1tGGsMH7st99+hS9stdVWxZZYXDFmDA2y0t5kxFG02EB/733ve5exwfhhEYo82Y/YCffFTsT2TFKf62cnjoe3ltqYHcvWobvd7W4lTi+SD0f5GhrGgSWNkDqUgfhBD3pQ2ZfkVYrZJiMXTMJoeWaeW3d8ndwq6GabbVZWQjlcZuUMlL1jeMmfgUsn4xTpZIyF18bpXK5N0hAE97jHPbq99tqrOOUM0/ve976yskeenC8DAzl7beWVq72GDJzBI06vuk/SKCgj8iC3Bz/4wd1uu+1WZOb1lMEXX3UBxowsOcUGNCsNb3vb21a9Juy3H0xqgNO+Jjb3u9/9ioyt6HutSp72/rlmFZVc6c4+++xT9tdlVQS/cIwcJo3IJ+WTJVnjH6fGBEPdbH1oA8J4Qa4mdY94xCOKflhV/cQnPlHsSK0PQ0DZ+iAdZQMEDiTHIJM4OjIkx+gtLgL9pafkSm+lcSTt22STyZUOu6fucwlDwCTH2x8OGd54sLfGCs4wOwZD8QsiLzI0LgDdAHK2Rx9nTnwt20AecG3awIneGt/woAO44kf+gWs154aGpWBJI7iPqbz2O/TQQ4vjRlE5FQZo0JEm1ZnSCRzTcXUaBkrH4djqTIwWA4UXw1B3IMfE3VtzTTpMqh7KxJGDZT/sRz7ykfIqnkPpQwGDAgfSAGF12ixYfTj1XgsZTAC3mu844dlkFhk754hbueE4CrYDPOpRjyqrzwZhDoNXlw94wAO6+9///sUIqx/nkm7UsiQDqNtinOAAmAzRBx+52Mpi9Z+MH/awhxV9wY3crQTjZ+XaWwz7OA0k9UpD5DAuqPPqnuk6eSmfsxNEVv22r2XbsHCQsT5Jd20zMjHS/7xpyeopGQ8l55RNr4HuiAvS6Sp9yPWhEA6OdBcvXCM36c456ok7gjziOR8COGtvdai5ife5Dg1c8AiXWsajQo3++aQRntEJiO5C5BvUiw8NDePAkkbwOANR3jibFDTKHWUeJ3SK+vkpw0qiPaWcQU7jn//5n3d/8Ad/UK7bIG+VQTy8BQ4xZ9gs3qvjdLg8c5JQhomCvWM+NrCnlDNmvyln0SqIlVS8n//855ctJI6cX86b1RMYZczGicjCkcxMIOy5sjpK1s973vO6pzzlKcUx5xBzJp/znOeUfb/eAnAcrDhYweZEhq/nJUyqDvgqkxx9oOaLdK8o6YaVdPL3Ks3gm8kHh16Q1zaIGN6EcSP1zrP7stD+gskFLq7RWyGrJDAJbisNsQmcX3bBgOyNRbaVwKT0YD5QLvuFY5xKgQ7gHNtW68+00ZeTiSUZ6mPhR7bsmwkF2dYTOtdzrzAEcDYmsA36HODPlthyZpwbGml7MoqNIDs2LensM1lbKMm4WcN5njMthIPFCJyyqosDvtK8vZCPvvQ5NzQsBUtyejlqvii3Z9PPjlh93GOPPYqBYygoLMM8CdSdIUbea/R3vetd3Re+8IWSrvN4JcygyutVpXx+YcCrKw4N54Zxk08nBHnx91yYlFEgGx9O2QutPj4E5PBaQcedgbXyaOsAI4wX59HPjamDgU8+YVJIvZUtTpY+WvTrBrY5vOlNbypbB8hQHh83+jUMe3rTRuSII71wf57pKL2WrfzjhHbExf5MMvQR24te9KLyoZJBgnE1ibDf0ISJY04vDMhxhvHLakQGwEmglkMNAxa+nHADGHnav0cHcE8f68uyYeFgF0xC//3f/71M7Ng2EyH7ZuOYTbrPrQ7amt7Sg/QfOulcnI7TD+dDIv3eUb+3H9a+eRM3doucbRPwoVVsB6hTgvuFIWAyibOtLRwxMtbfbEHbfvvtVy3uCEMicjJx8EaNbtiPrv3ZMHIm2zvf+c6r8kbWwEZPU8Y40FN6TI76lLeZ5IsLHXE0BqZe8tecGxqWgiX9Tq/9jzq/mZpX8T5w2mWXXYoRo9QUnLL2DYM0zgSlZgB10ASriBQ+v+m6JugQyee5BiyDlM6k8/u1Bq+qfShm/zHHhiGzSiruZ6s4Dg984AOLcwGembA6KI9Tutjf6YUPfvCDxdFSBwMCbvZFxxCQr8kFmdoDZcXaBMMWAqvZ+T3KUXIeBXxtM2BwGHZGZS5oH8/Mc/HhEP7zP/9zaT8r+z7q8HGd17/kRa4mH1atnXPU7PW2Cv/7v//7xXmLXPPsmnuONRjuxf5OLz62YHDS8aWr4nj5STjtZsWXPOmI4LcuDXh+McN2DW3AEEPttM8F2yM4pdpzPr/Tq/5Qp/UHIs874ogjysQMdzLWd/7wD//wNjJZE7e5QN+E/E5vVuDUXXs5pk8vZ9ARk2O2gN6RhS1c7INr2mquviZdu9GVOKKCPufXCzgl+YA2qJ8zH9nm+dpGfltw8hNa3g6BdqKn0av5oi4fZ3q20N/pjQzojOc5z2SBXebosse2Gvnewi/p6HP0LjrvXnH35zlrApnkueP4nV4yZOtM8D3LWMLuWiTxqz/aUr1iyxaC1IcshMX8Tm9fzgLn3ATfZM3kh91ly7yBe8xjHlP6cC3L3JcwHyz0d3rTjqPAQfc840f0wt55+W0tshChXeerA6PA8c9ky2IRu6Zc8ok8xBtWDpbk9DIGPhCjTBTUa2NKRZESoK+wOuxSnV7PqMsRDAQMkY7i91cN4joMI2jQMuB4/a4jcMJ0Mmm+2MefY5kyc1wdcFiK0+t+HRLHGFFOGTngQq4+rmIMdVp1Uh6ujJjydGCIDNaEhTi94Jl4CtqLQ2egda+BClcr0tqT8cZZXTibDBkjbEJkcPMldJyoIM9PfBSW4vTiZ8VWGXSVjPGVLs0eaY4tR4RT44i7gcKAzyCG13yN70KdXsjgUKfnHAe8xA26dJecbSPxfHXKffX9C0Fzev8b6qjudJat0NcEulPr6Sg5pI9M0ulNHuVoF89WrueyFcF8ntVHfY/nLsbpDdQ//UWgo+wDR5L9YOcskBx22GFFzq4H4ZF754NxO730XV/Q9yw26HdszyGHHFJkwu4utj/knqU4vRD5xHYYM3Bmv9gfdshKuu8tlJH8QGdynrT5YDF/TuH5dd8B7UXGOJOxsY2M9TOTTG9WRvkSC0Vzehv6WJLTS2EYF6t3lJUy9R2DUcqqA4xrpbfOo3wrNAYACo2Xj6t0IK93YngZBgOPuNVfoe5gMJ+y1cPgsJSVXo4Fp4uTxRH1HEdBJ3VNXD6G0QBsVZIxq52p+fCFxTi9OQrqTK7hS4Z4iqu/c3F6wYm0YmolNas5/efV6J8HS3F6PTMTCDrgGLkK4ngF8tMFdVHP8EyYDxbq9CZel1HH6TV5kmt02ASinkTU+ReD5vT+H6gvObAlnF96HPTtWw19Y9JOL8inDFzog/biODq6Nt/n9FHft1inN88gi1pW9Ef/0xfJk/1gE/zii2s178RzPh+M2+klV+1kUizOFvhYmzykS1sIvxq5bylOb18+4mRLXwX91yKUsc9Y0c8P/fP5YLFOb5A4/VBffgPd5XjizaYZs/UTWF1/mw+a09vQx+1+rXwLewc2BhgYKCOHl3Hl1AhWAbySMdPzW7tLUfZpgKG1z8v2gz333LPwnnXg6x/dDDiM4lIHh2nAq8V//dd/LT9eznDNOqzE+oUIjs7jH//4MqDV0OVmTbd96GdLikkK59oAFOfXAO+YQaJhNOpJvLcJ7Jmgz9mOwunjgHByIHoQEzyUbEeVb9L2oQ99qHvFK15RJtqzDosotqu9/e1v7171qlcVHZ5F1H3f1gMLEBZdbKnhjM06bJ3AmS1eG+Atnz/wYYstFpnIZtHLJIFTXU9CG5Y/hvkao6GhoaGhoaGhoWGKaE5vQ0NDQ0NDQ0PDskdzehsaGhoaGhoaGpY9mtPb0NDQ0NDQ0NCw7NGc3oaGhoaGhoaGhmWP5vQ2NDQ0NDQ0NDQsezSnt6GhoaGhoaGhYdmjOb0NDQ0NDQ0NDQ3LHoM5vX6ge9SPsfvxbj/yLvSRH1GfJaQOuM0iv1GYi6u0uWQ/LYRD4uFZy3kWUXPtc66RfMkzFObigHPS6zyj6tJwW5CRH7sfJVvpNfrXp41wFPptm/Qh7cBCoQ6Cf8LDHeo6JG1I9DmEM46zwG8+wLMOddosos+r5gx93W9Y/hh8pTcdH2oF7cfnY4DlSxgn6mfWZSQNRqXNKvocc+44hAFWXkL/PGkwV3wI9MsP16TX8aCfB/p5JoFRPGrkXD8Un+t8dZhPnuWIut7kNcrpFY/TG3sXeyYO/XsgaXWYK31UCEZdS5gLa7o+TfR5rI5bPU7I0z+fFsIxZeaY9g76+WYNo7iN4pq0SdZjMc/uyxs8J2HU9YbljcGc3lqBKZ5glu6vTv0dY/0/5HHEEuZCnjNuRc4z00n6ZdSrC/6aeBZRy6/m7jwDg4HZX84u5D/gx4FapoLy63Mc/b1r8tbHoTCq/JovmdKLILIn49QPplUPZfdRcwhvco7j5qg/hvvqMK16zDrmkgN9SN8iS+fiZCxE/nUI6nPHtNfqAihDqJ8V1Plcx4G+Sqv7X41Rz5kGah6jOKSvOd7xjndclV+dyBxG1WdcWJ18U2YdT5vg7O+T0/5rwhDyDy9l10F6HVeHSWM+MgKcyBjSx8IzXCPz+T6zYflgMKe3VkCKGeVkCAy8nMcobpQ0ijoE0pEca9R8UpdZROQt1PVwjnddL9eHdN4ja4h8w921hGmiLhe3hPCodTO6CrmeewPyzUC9OuS++t41oZ83sgtqWQbh4n/p73SnO5XzX/ziF4Vn//6GNSMyYw84XuTIrsW2RfbRA8e50Jd/9GF1AXJf7q3PkxZEX2udzjHo31OjX/YkUD+75pL61OX340DGq5Mz1PfNF6uTS408N7ZCEKcf4rEpc2G+5SwWqXu//uEaJF5zdk/0un//KMw3X4355ser1mdBmr5Yc25YmRjM6Q0oYRTyDne4Q4mnQySefAvBQjvUmqD8GKsaOk9WpteWjpTVj1q2db1S16GQthfIlDG14lhznDbCZ1QI8MbXMc6OeORcg3xH6VMfo8pZExaSN3wD93LCyDsyV5ch9WFtQl+WzukvG+FcIEu6QfYC+Y7S7+Tvp88X9f31M/o66Zrz6Kv2l7bOOuuU876OjMKocsaNPLtfRn1OljXwzvX0udVB3v7zFwtl13LLcyNT55E5jLPsxSDlz8VBemRIR5KWIH2ue/vIPQvBfPKnTwVW0smXXtRyhrptGlYObvfrhp96y1PKn/3sZ6Xj/PznP+9uueWW7uabb+6uv/767gtf+EK33XbbdQceeOAqRXWkqDG+fcMlrd8hRqUtFeFQx6+77rruO9/5TneXu9yl22OPPUp63cGC/vm4uUG/jD6UeeONN3bf+MY3ul133bXbfvvty8qe+3KvPJPgtjrU5eHBScjgJf6Tn/yk+9SnPtU9/elP7zbffPOSHp79Otfnk6hHZFXroPNwEejEJZdc0l155ZXdwQcf3G2wwQa3yVdjEhxHQdmgvJQpjQ6ry2mnndZdcMEF3b777ttts8023cYbb1x4W/XlkDn2+12NUXVbCejXm01jz375y18WG3fTTTd1V199dXfCCSeU61tuuWW32WabFVlmZcz9fX2C+rlJWyjm+wz5BJzohDp885vf7A477LCiD6tr+0kC59XJI2nkftlll3Wf+9znumc84xndFltsUfKoT31f6jlOKGfUM/vpOXcU9LcLL7yw22WXXbqtttqqTIzmgvw1JlGHUUh6yvvud79beD/lKU8pdiFjMtARcUH+cXPso8+5lm3KZoPPP//8ogcHHHBAt+mmm3brrrtusWcmdRbabIlpWDkYxOlV5Cin94YbbigOmdeqBt0YYArsKL+0GOBQr5U8kDZfQ53n1M/op3mWgIM0M3RH9bjoootKZzKguV53/jynjgfz5Tcf5Pnh65g4iCvPYMzQGhTWX3/9VYaLXN0vj7yRex/9OsCofKMw1711kAcXvAL6ccYZZ3T3vOc9i7EC+fK8xOu0IM+dD/r3joI8ZJP2D9KWjnSa40s3dtxxx2JYc184pizH+fJbaD2Svz7HL8G5yYW6XHvttSXPIYccUnRjww03LPphgDAYGyD65dfcF1KP5YS+DOgufbXCdOuttxa7Rhd+8IMfdJdeemmxD3mjJY/80iCrfglLRc2tD+n9a5loAm7nnXdet+eee5bJT+oG4VYf5ypnqUif8fzobMqFpANZn3nmmd3ee+9d9JZchTo/zJfrfPJ59lz1l5YQDpExzvRCvzORxzeLJTXfnEcOgWem3uNAyqmf208TLr/88rI4ZYEH31rGzqMj7pkv5ptXGUHiubfmGP7slvEOjM33ute9il8Rh1fg8K5ustGw/DCY02tA0Fk4uJwDA4U0MzOdKueuW53kSMivU9kXxwjUTsRCOlkfc93f70gGJeCQ6SgxYPg4l19d8kol/BzxFgdHIZ1zHFA2PjnWvPtB2Rlgw63ea0jOzsX7GJU2Snaj0L+3lm8dj0NJzhwER3ogzTNwI+MY21oXcqyxWH416meIk3F44pz2xxdwS13Eo7uO4Zv0PubisdB6yB9+jjiHN56cWrw5uAYC59tuu20ZDKRlf29WROZb/kqGNma7tCv7FdvGpnljYeWXLXONXZOPLguxa9ovoS/zuXRjFEbdD9GJ6KcAzrWzczw4DPkwDD99MLxcj72oOcO49cTzortCnp90fOt09UjfEtTDdXwTgnAehfnUI/WuOeUYGSeOA1sWu+Y+bY4/TuICznku2dZBWp6fssaB8AvnmrcQGYuDa3iGbzjjKE/qE4R3H/OtQ+SR/I7hh1cCe0Zn2S0LUbFrm2yySQnOE0w05NUeDSsHgzm9DL+OwZBmcDAwOLfiKx5H1wxeejqXoHO537PE0wmCxVQr9+fedPh09pShk0gTl55BwsAQAxte4Zl4nr0YfmuCZ/aNQP9cwFve8ILIVBDPDHmSiDxrnjniEVkbIKRl0HWtlmnOkyaPe4NxyDrPc8Sxf2RslR3dkEYvMpD1dUAgZ+k5HxfyrHCr+eAn4EuuHFuG3wDA0TUwcHINCq4J8ronMgiU009b6dC+bJl2pa9sl8CWWdXj9LJ3sXl0wzX9LfpR6wmMkvtC4P76nlonhDxfmramJ9LE8aKn7hfCLf0tep3r40bKxAcvIdyliUsD5xwckwxyDR92WR5cpac+kwIeQuRb8016XQ+oZRl5Rs71sca46xBu4eWYgK80QbnkiI9rgB85j6rHuJBn1XJUPtuEn8CmCXSXHYtd22ijjYotc5QWmyaP+xpWDgZzeg0IOgejyugLjJVBwdGAkPTk6Q8MdedKRxgHIpJ0ch3Lse5s9bnr4eM8nDyn5pg0cJR3nKi51Zz7aRA+gEuMWPgzYOG6OiymHnmu+4TwSpDGEMnnXDyylSaEv+Ba5OyYZ+eY8paCPA8iw/B2ZETJMHxTj1HtX58nwDh4BnlWeNQ8a6c3Kx5CnF0Dg1fa9eAxamBIGbVsVjq0JVul3dkrdkywqsuuxeEVYtPYwvQ/IfocjEu+tU7QhegvuJaJTfTFeXiBo3w1z6QlTBI4pW+Fd+qQc9zDpeYoPZPMcJ4EPLeWYfjl3LFOyz2jQvSgrgfkvnGi5ldzdMw1SJ7wA3Hc6Ir8jq6lHuNCyg1wEehEAp2NXXNk1/LGytHqb20DpaduDSsDgzm9DJAQox8HNysh0jI4ZAU1M0n3Czpa34DpGOOCZ9UhBkBI5w/CIZ0+vGqONc9JoOYWfnVajlDzcdQWeMrjGDlPA+FVc4yTlXMylYZTLc/Itw6Be8eF/rNqzuGr7Dq95hJuONcDWOoR1PFxASeBbmZgYPCt8GaVl2NrkHDMfl555J9rYMC1L5eVDjKhq0LsGhtW27WkiceuxSFzf99hWIqM3ZvnBNGH6KkgD/0IpMnT11Oh1uU6TAqpf805dUha8uBVcydXwK/ud8GkeYdLfUyAvuzEI1vHOj5J4FaHmmfS8Kjz9PmRLx3KWFJDnqUiHILwiF3DtXZ6Y9sc2TVxti15pLNxntGwcjAVp1cRfcWSpnMw/AkZDOIAJ82gYBDJwJCOluckwDgUOJ0J6nJ0LOm1MajLDsIvoT6HcXCcC+EenhCukGtBzTGh5jpOeGZdfr+MyDV86wDhlZC0cHacFmpu4VvzhppjwigZ9/MH/fPkmy/q/OL40eE4vjH6BgRxwWDh3NG1XG+YP7RvJvMJtcNb27c4yLXTm3av4wtt+/kiOgHKSIBa//qc6j5X54NJcYVRfa0uL/E+N/Gc13lq1Of1M5eCPMcR54T6+XW54gnh278+SeAVrnU81/qouYavIyT/6viPeuZ8EW6OHF/xOLSxW6NsWyb3jnlGw8rBICu9ASPfHxwSsgLSXwlJQLsfYDGdyD39+9OZIM9PWo71fTV0wNzDAIzinPvHBc+qV2ogZdQB0snxyDEGq8+zj35anjkfuLeWK+R50mq5JuSaUHNKfFToY1TaYoFHLeeaY80fUm59rAeHUbzmSssz14SaT32PON5C7fgaHDIoZPUjA4XrydMwf2gvNqu2X3FynQvOHePwJqT9HRNgvu2/UNBZuhB9STmONZf6WnS4DuFa5xsH6mfl2aMCKL+2bf0QnjX65yAtzxwX0vfwi52YC+EbW1zLNwHGybHmNOrYD0H49HWhRn1ex+vnrAl13sQdI8/INnZNiE1LiG3LuTyesRAeDWs/BnV6Fc3oZyDox3PuGMfRwJB7E+bCfKumowZ1h6o7Q54V45Awqoz6edDnmefOl998UfMNP6g5Q8p1Hm6jQvLXkL4YuI9cah41pOEZJF/yOqbsHCPnOj3xGnnGuFA/r+bYl3OtB+FWh6Cud51eY670PvJsHPrydJ7BV4hDKxgEEjcwOLqevA0LAzvFbsX55fA6Jo1dc5Qvdi1tlzAKc6WPQvRwTYieRHdzX10WXe7btbmwEI7zQZ4XXjXHuY7gvn6Acfa3Uag59OGa8vs8QVot5zq9PiZ9KRzXBGUlQJ9zDTzCW1yQN3JeHc+F1CF5wyP8lJMQp9cx9iwhTnBsmzwNKw+DOr3A4MfBzYDgaBAQch6nV6DcoV3TF6875nyrlnvq/HXHmit9LvTLzXn/Of18S0WfU801AWJU+/nxSRiFcfGty80za36QeJ9j0OeZ+Lg4rg59TjXXBJiL03y5LrUuNRcQz+BQO74ZABwNCFkJkdZ/RsP8oI/FtmUiH5sWu+ZY2zUYpRvidRvMVy8W0m51O/fv+//bO69lK6otDE8FxEBSUQyAAmJEFDGUkgxQBEstqrzS8l3OM3jlA3jjnV5QCKIEBXMiKggqoIgoKpIMVJ3zTc+/a5x5ulfYe21gNf9X1dXdM4w5eu3V/xw9ei7QeNINQbvSl059GwzRr9LHdr6zb+dbr32v8rHKzzhuJ35Cr32FKn+1L+si8kW+67zuGgX1VeV11PlAuXSNDd2K2iZd08Y59bQ1Fx7nPOhleE0QTATlZKCAlzbaIr1wv7yZZLNded1NWEI/9a2z3Wuq7GtsqLuG0s86BnMdrXyqqquz3cq3dn73ilbXjQ/Uq03VNaqsnb9VfTul7COf2BT4MkFoktCxJgfaDGZc8w+lrknTFPhGXeM4fhfK4+H4O8hm+R2LY0U/6uikzVDo9Nrr2sm/dn7G+k7HhNJuVV/KYrmO6duuf9lGx1XjDIXB2Gt1HSVlfbfjxbEilLNJr6RtBLfSNAW/Olcfc+FxzoNegfArA6LJAdcoo47juEXKc9GrL7XslGO3sx/rY9/hutnq7Gts1SMIdagN1PkZ20Cvrkd2SvuRWBef1Fv1GS6qPmd9V6mTf/KNsniNsRx0Xkc5Xh3RTuwTx2ePf0wAfB/iprJOxzP1KKiND+/sOY+6puNI3feh279LaSd+BzS+KG2rrixXX1HXrlfU2Y0+tKLKv3Z9O72W0s5gPoPoX9lfdb0YpxOiXcbUJqLuRmKb0kYdg72G0iY+YUtb1DYFuhxTrrbmwuSsBL0M0cmXjHbKgHCscyYEQVndTQfUi06/2NF+RDeQjkH2ta8aQ/Zi/0hpqxdgi3E1Zjk29RqPmz+iOtULPueybChUfc7yMfrKcRy3zodO2tEm2h4qjMEmu9G+xm/lk9rLjsqgbFuidq2QXbbYnuNS7GmjSUGTQVWbTsY1rVHAqy3qmv5efPZ1UC+6/XvEvkD/8m/cCfKzHH84vx/lmNrLZ+0pZ4vnoqoMVF5H2X4oMFY5nnwWVfWi7hp6Bfb5PmK/1ACQ/5RX+SD/qvxUWUmVnTo0fhXyKdqTlqFvCnbLNubC5LzJ9IroDsfl5MAx2WCOW32B29WXlG3VX5tuGsanTpT9gLZCPrPXNpyU/lb5R5n8iP5E/9jrc+8Vdb4IHevzi/5EYh+1qWoHtB2O66jaSqp8K68N3zrxr8p+HWqrceWfvhPAMa/72MunqjGwUVVuukN/bx3rwV7n6By6BsPxeWsswH7c9PevQv3UjnO2qGnl95e2vUR+ingc/SvH5Vz17DnHVz77dpS2WqExRFVfPjuCryp/68airT5n9vFz7sa/bsAuvsq/VuPE6y4/g+hvWQfd+h/bcxxtyk82LWFQ+1hnDJyToJch676Eckf18Uanji2W9YrSn+hHla+lnxGVqQ3oOJYNBxo7+tXK/5Iqn3tFlR9VlO2iH63qgPN2bYZKtF93DBpX+6r6XvsGGifapqz0VZNbhD5lmammm89Kfwvacxz/NhCDhLNB9LvTa1C70v/yWnpNt/5VgY/Ul76fLRg7fn46buez9mfL5yq/Sh878aXXPrf6nARtSk3rpJ+5sDhvM73n+st6vvhhuoO/Wz/9zYbb3377PIwxxpjh4rwLeo0xxhhjjOk19Yu5jDHGGGOMaQgOeo0xxhhjTONx0GuMMcYYYxqPg15jjDHGGNN4HPQaY4wxxpjG46DXGGOMMcY0Hge9xhhjjDGm8TjoNcYYY4wxjcdBb8Pg/xrR/zdS7qE8jufQyX+HWtWvZDD/pSo26dfOdqfInjGm2ZT3OueD0ZGoP+VeyHZZPlSizWibY+uYMb3BQW/DKEVTYsl5WReJdVX1oLrYVpNE1VZOIDouOXPmTPrrr7/S33//XdkmltXZoSz6orKqtsaY/qC8n+tQu7o2rcpjnY7jvmwD8bw8ZkPTTp48mTd0Tait2mmLZSLWqzzWG2O6x/8NccMg8Lvooovyxp8WwR05cmQu55j9iBEjctnFF//zzINAnzp1KpePGjUq7wEbsge0A+op45wNW8Ax5TpnPMZQf/zRmPraUXfs2LF04sSJNHr06HTVVVfl8irogz8gu3/++WceN14bdZdccsn/XIcxpv/gnmZDU6Qv8X7m/ueBmXv90ksvzW04pg916AK6gq6J2J/2IK2gn8ZAb6QtURcjtKed6mgLf/zxR/r666+zDl133XVp3LhxA/ZoG32gvPQJPZZv8od+XEvUVGNMdzjobRiIMEgoJag///xz+uKLL9K3336bHnrooTRp0qR0+eWX53rq3nzzzSyoc+bMSdOmTcs2QP31NSnFVvVw6NChfI7tOIkAQs0x+2iL482bN6fdu3enqVOnpsWLF+e68jqqoO/WrVvTrl270m+//TYwJhPNAw88kG6++eZcxrkxpv8hwAUFsW+88UbasmVLuummm9Lzzz8/UH7gwIH03nvvpT179qTHHnss3X333WnMmDG5LmpWJJZLo+Djjz9OkydPzsFrJGobxD7o7IsvvpiWL1+eNXXixIm5nq3UQOCcYwJd+r788svpl19+GQiQua4pU6aklStXpmuuuWZA64wx3eHlDQ0DgWRDkMl0SFThxx9/zBPBp59+mk6fPp2F9rvvvkvr169PH3zwQbr22mvTlVdeOSDIEPvHco51zkRE0PnNN99ke7FdBFvUyUcdM+7999+fbr/99v/LboDssS9tX3HFFfkVIm1vvfXWNGPGjDR+/Pg8UXGdyjobY/oP7ne0jAwqxwoCpRO///57Dg7RAGkDD9+fffZZ+uGHH3KgOHPmzJwFjvqhgJU9Wogd9thVHW+f0BHKI9iIOoX+/fTTTzm7q74Epi+88EKaPXt2zvKCNE0+gHyiHAiI8ZUA++GHH07PPPNMeu6559Kjjz6aDh8+nDWcLHC0YYzpnBH/+g//PTYNQMIqlIXgVdu+ffuyWBPYEhwi9GRCyIogogsWLMgZidIGE8rBgwfTtm3b0pdffpn7kB1mAiKo3LlzZ/roo49yOYLMBEV77DMB0Z92X331Vdq+fXvOzBIcs6yBsRmLiYP2tMU/JhFssMdnZWkEffCZa2KiIatL0Mxkw+RDED527NicAYrXYozpT7iP0TPd+9z3n3/+eQ4Eb7jhhnTXXXelX3/9NesLWkPwOHfu3PzmSjoo6E8b3jChIXv37s2BMg/MtEWX3n777bRmzZoBPTly5EgOPNG5/fv356TC0aNH83i8ReOhH53FLrpHsIteomtkatGxDz/8MGsg52iargmoZ6M9fj3yyCNZ08gyo7X0I4hGH9FT65ox3eOgt6FEMSUI1eTABIBo8sofAUecmTx4BTd9+vS8xAE0sbAnOCVIRdSxQQYFsafthAkTcsD7/vvvZztkXgl8CYoZl0CZMS677LI8HpMJr++YRMigfPLJJznTy0TBxIOY4yP9mEyYABiDtb74I9+A8chSX3311dl3rgmb+EvwTpaHwNeTgzH9ie5daRnnbASc6BE6wv2OPrA8igdwMr9kaQmE0TV0QXaihqA333//fbaBnrFM4rbbbsvBKIEwQS96pwdpdI2NfiyrwieCVHSN8XhAxw5+saFLr732Wm6HHqFla9euzcHz9ddfn+3G4BU9ow0aSWBNEE9frkcP//fcc0/2T5+HMaY7HPQ2EAm79gSgBK3Hjx/PIksGhCCT7AFtyI7wGo3AVJMKaI/QE8zOmjUrTyIEk5TRn9dwiDIBLiLNxpreW265Jffh9SBjEbiSuWCtLUEtok/Q/O677+ZyMif4yUSFTZYm4C9ZjjvuuCP7reUajMsEgN+s6WMCoJxgmmUaXBNLHfAzXo8xpr/gXiYY5B6WngHB5auvvprfTqEbBJ08zPNwz3IGtIygkjdA6g8cK6NKPYEyWoUeEYwSVPIQTj3B8tNPP50ef/zxnDFG/2iP/vBATiB77733pnnz5uU9Wdk777xzYCnFihUrcuBMOW3ROILnJ598ciDBgHbRFv84pg0BNXX4QABM1pdgeP78+Tm4j32MMd3hoLdhIJSgTADB6OrVq7OoI9hkEMhUMDEQiCKc7FnuAOXkwDlZC17LkQnh9R17glOEnnbvvPNODlz5sQjlCDOv9hBvJgDWplFPEAzsyVYwAZBpoZ5+TDpvvfVW3jNRPPjgg3lCYgJgHAJfBepMemRNeE3ItSpDgm/yg4mPPsaY/kR6hI5xn7Px8Et2FX3htwB6e0SQSqCJHnH/8wBOGX2ww8YxD+z03bRpU9qwYUP+Ie2OHTuyrhDcoofYQ+v4ERwaJu1Bm1555ZX07LPP5h8E6w0UthkLbeVhHT0l0GU8Al8CVx7elyxZksvRLfnEhr5hBz/43QX6iVbjA7q9bNmy7Bft9DkYY7rHd06DQDQl8BwzUZABYb0sgoxoksVgnSvBJK/1EGjWiUl86cdGH4LdVatW5bW1ZGcJTsmOINjY4l9/INhkHS6v8hBq6hRosp6NSYHJh7YSayYPlkgwESxdujQHwNjBF/xE5NmwScCLX7ouQPgZk2UT+PTEE0+kRYsW5R97kPkhWNfkoIcAY0z/gRaBNIVztIPgkvue5Uu8DeIN0n333ZcDWjQELUJzhHQNTSMIBQLmp556Ku/JEi9cuDDrGrbRIwXN8gF9IuhFr/TPkCkYljahSQTlvO1ShhYNoi1+8sAvLVMf4Jj26C7/gg26iG+Mz5s09vRjvNjPGNMdDnobBoKISBP0sb6VZQJkPQhWCUB5fUcGVdlTJgYyDxJ2oJx1cmRAEFuWCfCakP68fiNLjOizzoxsBDaZLBB/+jI5kLEgQ0KQjeAL/CMYJ+DmtSTZWH4EgtiToSXTwqtDCbz8ktBjn4mHQBw/8IsAmUw2/mGP62UyjIGyMaZ/0b1MQMk6W4JLljBxv6MDaBB6w5se9ArdoY+gL3pDVhh9og0bQShBKdrF8gVssBwL/cM+ekMgzZsldAld4w2X9JO+vLEiuFWQyzj86IwHc5IFLAljHOzSJ4K+YQP9I9hGs9FBEhNkhvlhHXrJdYM1zZih4aC3YSCibIgvmVZ+6IXQIuYIKEKPyPJ6D/HXr5Uj9KeOH6dJYMk2EPCyRpfgkn4En0wEBMZkUPgRCWvqWKe7bt26PC6BMXVMGgTITAbYwDcmLgJr+uAfkw7BNK8dmZziPxWET9gjy8OP37DBhMdEwkTEhIM9gniy2PiH7+W1GWP6C+5jBZj6QS36RiCILujtE/qDNpBl5f6PSBP5HQDahp5hix+s8QCN1qAnjMUDOcsnWHqFTTb0kgQCekMAy7ID9I8AnHo0iIAbnUOH+HEv7fTPKGIfnVPwCtI03sZhF33FNzSLOh76eZhH0wik1ccYM3i8prdBINiIIqJJ1oAfejAJkCm48cYbc0CJUL/00ks5MAUyCtQpOKQ/dsh08MtjsrAIMpMAgk5wiRCTTUXIEXcCXE0MCP/GjRtz0MqEwGTABMOkxNpignDW0fGvMzDZ8M8EMTGwhpfJhjomInzV5IVPbEx69OfHa4xHO364xmSCLSYt1r6RWeYaQHtjTP+h+1fZTvQFzSAg5OGbjYwqGsCyBdrw8Ixu0EYBJMElttAM9AOtQpcIKCknW8uPy9AQgmHqWRvMQz36xwM77bGFDXSRt0noIvYoI2glsEYXCXhZNsb4+MsaYXziX4fQki1dFw/yr7/+erbF+OgXgTx9uR4yzdiMP8pTf2NMd/h/ZDPGGGOMMY3H736NMcYYY0zjcdBrjDHGGGMaj4NeY4wxxhjTeBz0GmOMMcaYxuOg1xhjjDHGNB4HvcYYY4wxpvE46DXGGGOMMY3HQa8xxhhjjGk8DnqNMcYYY0zjcdBrjDHGGGMaj4NeY4wxxhjTeBz0GmOMMcaYxuOg1xhjjDHGNB4HvcYYY4wxpvE46DXGGGOMMY3HQa8xxhhjjGk8DnqNMcYYY0zjcdBrjDHGGGMaj4NeY4wxxhjTeBz0GmOMMcaYhpPSvwHwhbQPlrh9mwAAAABJRU5ErkJggg==;" vertex="1" parent="1">
          <mxGeometry x="149.5" y="-30" width="701" height="337" as="geometry" />
        </mxCell>
        <mxCell id="LWKtvQjGmoH4qArXGYuM-2" value="0" style="whiteSpace=wrap;html=1;aspect=fixed;" vertex="1" parent="1">
          <mxGeometry x="200" y="400" width="40" height="40" as="geometry" />
        </mxCell>
        <mxCell id="LWKtvQjGmoH4qArXGYuM-3" value="16" style="whiteSpace=wrap;html=1;aspect=fixed;fillColor=#B3B3B3;" vertex="1" parent="1">
          <mxGeometry x="240" y="400" width="40" height="40" as="geometry" />
        </mxCell>
        <mxCell id="LWKtvQjGmoH4qArXGYuM-4" value="11" style="whiteSpace=wrap;html=1;aspect=fixed;fillColor=#B3B3B3;" vertex="1" parent="1">
          <mxGeometry x="280" y="400" width="40" height="40" as="geometry" />
        </mxCell>
        <mxCell id="LWKtvQjGmoH4qArXGYuM-5" value="15" style="whiteSpace=wrap;html=1;aspect=fixed;fillColor=#B3B3B3;" vertex="1" parent="1">
          <mxGeometry x="320" y="400" width="40" height="40" as="geometry" />
        </mxCell>
        <mxCell id="LWKtvQjGmoH4qArXGYuM-6" value="7" style="whiteSpace=wrap;html=1;aspect=fixed;fillColor=#B3B3B3;" vertex="1" parent="1">
          <mxGeometry x="360" y="400" width="40" height="40" as="geometry" />
        </mxCell>
        <mxCell id="LWKtvQjGmoH4qArXGYuM-8" value="21" style="whiteSpace=wrap;html=1;aspect=fixed;" vertex="1" parent="1">
          <mxGeometry x="200" y="440" width="40" height="40" as="geometry" />
        </mxCell>
        <mxCell id="LWKtvQjGmoH4qArXGYuM-9" value="0" style="whiteSpace=wrap;html=1;aspect=fixed;" vertex="1" parent="1">
          <mxGeometry x="240" y="440" width="40" height="40" as="geometry" />
        </mxCell>
        <mxCell id="LWKtvQjGmoH4qArXGYuM-10" value="14" style="whiteSpace=wrap;html=1;aspect=fixed;fillColor=#B3B3B3;" vertex="1" parent="1">
          <mxGeometry x="280" y="440" width="40" height="40" as="geometry" />
        </mxCell>
        <mxCell id="LWKtvQjGmoH4qArXGYuM-11" value="15" style="whiteSpace=wrap;html=1;aspect=fixed;fillColor=#B3B3B3;" vertex="1" parent="1">
          <mxGeometry x="320" y="440" width="40" height="40" as="geometry" />
        </mxCell>
        <mxCell id="LWKtvQjGmoH4qArXGYuM-12" value="9" style="whiteSpace=wrap;html=1;aspect=fixed;fillColor=#B3B3B3;" vertex="1" parent="1">
          <mxGeometry x="360" y="440" width="40" height="40" as="geometry" />
        </mxCell>
        <mxCell id="LWKtvQjGmoH4qArXGYuM-13" value="26" style="whiteSpace=wrap;html=1;aspect=fixed;" vertex="1" parent="1">
          <mxGeometry x="200" y="480" width="40" height="40" as="geometry" />
        </mxCell>
        <mxCell id="LWKtvQjGmoH4qArXGYuM-14" value="23" style="whiteSpace=wrap;html=1;aspect=fixed;" vertex="1" parent="1">
          <mxGeometry x="240" y="480" width="40" height="40" as="geometry" />
        </mxCell>
        <mxCell id="LWKtvQjGmoH4qArXGYuM-15" value="0" style="whiteSpace=wrap;html=1;aspect=fixed;" vertex="1" parent="1">
          <mxGeometry x="280" y="480" width="40" height="40" as="geometry" />
        </mxCell>
        <mxCell id="LWKtvQjGmoH4qArXGYuM-16" value="26" style="whiteSpace=wrap;html=1;aspect=fixed;fillColor=#B3B3B3;" vertex="1" parent="1">
          <mxGeometry x="320" y="480" width="40" height="40" as="geometry" />
        </mxCell>
        <mxCell id="LWKtvQjGmoH4qArXGYuM-17" value="12" style="whiteSpace=wrap;html=1;aspect=fixed;fillColor=#B3B3B3;" vertex="1" parent="1">
          <mxGeometry x="360" y="480" width="40" height="40" as="geometry" />
        </mxCell>
        <mxCell id="LWKtvQjGmoH4qArXGYuM-18" value="22" style="whiteSpace=wrap;html=1;aspect=fixed;" vertex="1" parent="1">
          <mxGeometry x="200" y="520" width="40" height="40" as="geometry" />
        </mxCell>
        <mxCell id="LWKtvQjGmoH4qArXGYuM-19" value="22" style="whiteSpace=wrap;html=1;aspect=fixed;" vertex="1" parent="1">
          <mxGeometry x="240" y="520" width="40" height="40" as="geometry" />
        </mxCell>
        <mxCell id="LWKtvQjGmoH4qArXGYuM-20" value="11" style="whiteSpace=wrap;html=1;aspect=fixed;" vertex="1" parent="1">
          <mxGeometry x="280" y="520" width="40" height="40" as="geometry" />
        </mxCell>
        <mxCell id="LWKtvQjGmoH4qArXGYuM-21" value="0" style="whiteSpace=wrap;html=1;aspect=fixed;" vertex="1" parent="1">
          <mxGeometry x="320" y="520" width="40" height="40" as="geometry" />
        </mxCell>
        <mxCell id="LWKtvQjGmoH4qArXGYuM-22" value="13" style="whiteSpace=wrap;html=1;aspect=fixed;fillColor=#B3B3B3;" vertex="1" parent="1">
          <mxGeometry x="360" y="520" width="40" height="40" as="geometry" />
        </mxCell>
        <mxCell id="LWKtvQjGmoH4qArXGYuM-23" value="30" style="whiteSpace=wrap;html=1;aspect=fixed;" vertex="1" parent="1">
          <mxGeometry x="200" y="560" width="40" height="40" as="geometry" />
        </mxCell>
        <mxCell id="LWKtvQjGmoH4qArXGYuM-24" value="28" style="whiteSpace=wrap;html=1;aspect=fixed;" vertex="1" parent="1">
          <mxGeometry x="240" y="560" width="40" height="40" as="geometry" />
        </mxCell>
        <mxCell id="LWKtvQjGmoH4qArXGYuM-25" value="25" style="whiteSpace=wrap;html=1;aspect=fixed;" vertex="1" parent="1">
          <mxGeometry x="280" y="560" width="40" height="40" as="geometry" />
        </mxCell>
        <mxCell id="LWKtvQjGmoH4qArXGYuM-26" value="24" style="whiteSpace=wrap;html=1;aspect=fixed;" vertex="1" parent="1">
          <mxGeometry x="320" y="560" width="40" height="40" as="geometry" />
        </mxCell>
        <mxCell id="LWKtvQjGmoH4qArXGYuM-27" value="0" style="whiteSpace=wrap;html=1;aspect=fixed;" vertex="1" parent="1">
          <mxGeometry x="360" y="560" width="40" height="40" as="geometry" />
        </mxCell>
        <mxCell id="LWKtvQjGmoH4qArXGYuM-38" value="2" style="whiteSpace=wrap;html=1;aspect=fixed;strokeColor=none;" vertex="1" parent="1">
          <mxGeometry x="480" y="440" width="40" height="40" as="geometry" />
        </mxCell>
        <mxCell id="LWKtvQjGmoH4qArXGYuM-39" value="1" style="whiteSpace=wrap;html=1;aspect=fixed;strokeColor=none;" vertex="1" parent="1">
          <mxGeometry x="480" y="400" width="40" height="40" as="geometry" />
        </mxCell>
        <mxCell id="LWKtvQjGmoH4qArXGYuM-40" value="3" style="whiteSpace=wrap;html=1;aspect=fixed;strokeColor=none;" vertex="1" parent="1">
          <mxGeometry x="480" y="480" width="40" height="40" as="geometry" />
        </mxCell>
        <mxCell id="LWKtvQjGmoH4qArXGYuM-41" value="4" style="whiteSpace=wrap;html=1;aspect=fixed;strokeColor=none;" vertex="1" parent="1">
          <mxGeometry x="480" y="520" width="40" height="40" as="geometry" />
        </mxCell>
        <mxCell id="LWKtvQjGmoH4qArXGYuM-42" value="5" style="whiteSpace=wrap;html=1;aspect=fixed;strokeColor=none;" vertex="1" parent="1">
          <mxGeometry x="480" y="560" width="40" height="40" as="geometry" />
        </mxCell>
        <mxCell id="LWKtvQjGmoH4qArXGYuM-43" value="2" style="whiteSpace=wrap;html=1;aspect=fixed;strokeColor=none;" vertex="1" parent="1">
          <mxGeometry x="560" y="360" width="40" height="40" as="geometry" />
        </mxCell>
        <mxCell id="LWKtvQjGmoH4qArXGYuM-44" value="1" style="whiteSpace=wrap;html=1;aspect=fixed;strokeColor=none;" vertex="1" parent="1">
          <mxGeometry x="520" y="360" width="40" height="40" as="geometry" />
        </mxCell>
        <mxCell id="LWKtvQjGmoH4qArXGYuM-45" value="3" style="whiteSpace=wrap;html=1;aspect=fixed;strokeColor=none;" vertex="1" parent="1">
          <mxGeometry x="600" y="360" width="40" height="40" as="geometry" />
        </mxCell>
        <mxCell id="LWKtvQjGmoH4qArXGYuM-46" value="4" style="whiteSpace=wrap;html=1;aspect=fixed;strokeColor=none;" vertex="1" parent="1">
          <mxGeometry x="640" y="360" width="40" height="40" as="geometry" />
        </mxCell>
        <mxCell id="LWKtvQjGmoH4qArXGYuM-47" value="5" style="whiteSpace=wrap;html=1;aspect=fixed;strokeColor=none;" vertex="1" parent="1">
          <mxGeometry x="680" y="360" width="40" height="40" as="geometry" />
        </mxCell>
        <mxCell id="LWKtvQjGmoH4qArXGYuM-48" value="0" style="whiteSpace=wrap;html=1;aspect=fixed;" vertex="1" parent="1">
          <mxGeometry x="520" y="400" width="40" height="40" as="geometry" />
        </mxCell>
        <mxCell id="LWKtvQjGmoH4qArXGYuM-49" value="0" style="whiteSpace=wrap;html=1;aspect=fixed;" vertex="1" parent="1">
          <mxGeometry x="560" y="400" width="40" height="40" as="geometry" />
        </mxCell>
        <mxCell id="LWKtvQjGmoH4qArXGYuM-50" value="0" style="whiteSpace=wrap;html=1;aspect=fixed;" vertex="1" parent="1">
          <mxGeometry x="600" y="400" width="40" height="40" as="geometry" />
        </mxCell>
        <mxCell id="LWKtvQjGmoH4qArXGYuM-51" value="0" style="whiteSpace=wrap;html=1;aspect=fixed;" vertex="1" parent="1">
          <mxGeometry x="640" y="400" width="40" height="40" as="geometry" />
        </mxCell>
        <mxCell id="LWKtvQjGmoH4qArXGYuM-52" value="1" style="whiteSpace=wrap;html=1;aspect=fixed;fillColor=#B3B3B3;" vertex="1" parent="1">
          <mxGeometry x="680" y="400" width="40" height="40" as="geometry" />
        </mxCell>
        <mxCell id="LWKtvQjGmoH4qArXGYuM-53" value="0" style="whiteSpace=wrap;html=1;aspect=fixed;" vertex="1" parent="1">
          <mxGeometry x="520" y="440" width="40" height="40" as="geometry" />
        </mxCell>
        <mxCell id="LWKtvQjGmoH4qArXGYuM-54" value="0" style="whiteSpace=wrap;html=1;aspect=fixed;" vertex="1" parent="1">
          <mxGeometry x="560" y="440" width="40" height="40" as="geometry" />
        </mxCell>
        <mxCell id="LWKtvQjGmoH4qArXGYuM-55" value="0" style="whiteSpace=wrap;html=1;aspect=fixed;" vertex="1" parent="1">
          <mxGeometry x="600" y="440" width="40" height="40" as="geometry" />
        </mxCell>
        <mxCell id="LWKtvQjGmoH4qArXGYuM-56" value="1" style="whiteSpace=wrap;html=1;aspect=fixed;fillColor=#B3B3B3;" vertex="1" parent="1">
          <mxGeometry x="640" y="440" width="40" height="40" as="geometry" />
        </mxCell>
        <mxCell id="LWKtvQjGmoH4qArXGYuM-57" value="1" style="whiteSpace=wrap;html=1;aspect=fixed;fillColor=#B3B3B3;" vertex="1" parent="1">
          <mxGeometry x="680" y="440" width="40" height="40" as="geometry" />
        </mxCell>
        <mxCell id="LWKtvQjGmoH4qArXGYuM-58" value="1" style="whiteSpace=wrap;html=1;aspect=fixed;fillColor=#B3B3B3;" vertex="1" parent="1">
          <mxGeometry x="520" y="480" width="40" height="40" as="geometry" />
        </mxCell>
        <mxCell id="LWKtvQjGmoH4qArXGYuM-59" value="1" style="whiteSpace=wrap;html=1;aspect=fixed;fillColor=#B3B3B3;" vertex="1" parent="1">
          <mxGeometry x="560" y="480" width="40" height="40" as="geometry" />
        </mxCell>
        <mxCell id="LWKtvQjGmoH4qArXGYuM-60" value="0" style="whiteSpace=wrap;html=1;aspect=fixed;" vertex="1" parent="1">
          <mxGeometry x="600" y="480" width="40" height="40" as="geometry" />
        </mxCell>
        <mxCell id="LWKtvQjGmoH4qArXGYuM-61" value="0" style="whiteSpace=wrap;html=1;aspect=fixed;" vertex="1" parent="1">
          <mxGeometry x="640" y="480" width="40" height="40" as="geometry" />
        </mxCell>
        <mxCell id="LWKtvQjGmoH4qArXGYuM-62" value="0" style="whiteSpace=wrap;html=1;aspect=fixed;" vertex="1" parent="1">
          <mxGeometry x="680" y="480" width="40" height="40" as="geometry" />
        </mxCell>
        <mxCell id="LWKtvQjGmoH4qArXGYuM-63" value="0" style="whiteSpace=wrap;html=1;aspect=fixed;" vertex="1" parent="1">
          <mxGeometry x="520" y="520" width="40" height="40" as="geometry" />
        </mxCell>
        <mxCell id="LWKtvQjGmoH4qArXGYuM-64" value="1" style="whiteSpace=wrap;html=1;aspect=fixed;fillColor=#B3B3B3;" vertex="1" parent="1">
          <mxGeometry x="560" y="520" width="40" height="40" as="geometry" />
        </mxCell>
        <mxCell id="LWKtvQjGmoH4qArXGYuM-65" value="1" style="whiteSpace=wrap;html=1;aspect=fixed;fillColor=#B3B3B3;" vertex="1" parent="1">
          <mxGeometry x="600" y="520" width="40" height="40" as="geometry" />
        </mxCell>
        <mxCell id="LWKtvQjGmoH4qArXGYuM-66" value="1" style="whiteSpace=wrap;html=1;aspect=fixed;fillColor=#B3B3B3;" vertex="1" parent="1">
          <mxGeometry x="640" y="520" width="40" height="40" as="geometry" />
        </mxCell>
        <mxCell id="LWKtvQjGmoH4qArXGYuM-67" value="1" style="whiteSpace=wrap;html=1;aspect=fixed;fillColor=#B3B3B3;" vertex="1" parent="1">
          <mxGeometry x="680" y="520" width="40" height="40" as="geometry" />
        </mxCell>
        <mxCell id="LWKtvQjGmoH4qArXGYuM-68" value="1" style="whiteSpace=wrap;html=1;aspect=fixed;fillColor=#B3B3B3;" vertex="1" parent="1">
          <mxGeometry x="520" y="560" width="40" height="40" as="geometry" />
        </mxCell>
        <mxCell id="LWKtvQjGmoH4qArXGYuM-69" value="0" style="whiteSpace=wrap;html=1;aspect=fixed;" vertex="1" parent="1">
          <mxGeometry x="560" y="560" width="40" height="40" as="geometry" />
        </mxCell>
        <mxCell id="LWKtvQjGmoH4qArXGYuM-70" value="0" style="whiteSpace=wrap;html=1;aspect=fixed;" vertex="1" parent="1">
          <mxGeometry x="600" y="560" width="40" height="40" as="geometry" />
        </mxCell>
        <mxCell id="LWKtvQjGmoH4qArXGYuM-71" value="0" style="whiteSpace=wrap;html=1;aspect=fixed;" vertex="1" parent="1">
          <mxGeometry x="640" y="560" width="40" height="40" as="geometry" />
        </mxCell>
        <mxCell id="LWKtvQjGmoH4qArXGYuM-72" value="0" style="whiteSpace=wrap;html=1;aspect=fixed;" vertex="1" parent="1">
          <mxGeometry x="680" y="560" width="40" height="40" as="geometry" />
        </mxCell>
      </root>
    </mxGraphModel>
  </diagram>
</mxfile>
